G04 EAGLE Gerber RS-274X export*
G75*
%MOMM*%
%FSLAX34Y34*%
%LPD*%
%INTop Copper*%
%IPPOS*%
%AMOC8*
5,1,8,0,0,1.08239X$1,22.5*%
G01*
%ADD10C,0.152400*%
%ADD11C,0.101600*%
%ADD12C,0.812800*%
%ADD13R,1.800000X1.600000*%
%ADD14R,1.346200X0.381000*%
%ADD15R,1.900000X1.900000*%
%ADD16R,1.200000X1.200000*%
%ADD17R,1.803000X1.600000*%
%ADD18R,1.600000X1.500000*%
%ADD19R,1.500000X1.300000*%
%ADD20R,1.000000X1.400000*%
%ADD21R,1.600000X1.803000*%
%ADD22C,1.000000*%
%ADD23R,0.950000X0.850000*%
%ADD24R,1.150000X0.850000*%
%ADD25R,1.150000X0.970000*%
%ADD26R,0.950000X0.970000*%
%ADD27C,0.254000*%


D10*
X-893713Y546862D02*
X-897326Y546862D01*
X-897444Y546864D01*
X-897562Y546870D01*
X-897680Y546879D01*
X-897797Y546893D01*
X-897914Y546910D01*
X-898031Y546931D01*
X-898146Y546956D01*
X-898261Y546985D01*
X-898375Y547018D01*
X-898487Y547054D01*
X-898598Y547094D01*
X-898708Y547137D01*
X-898817Y547184D01*
X-898924Y547234D01*
X-899029Y547289D01*
X-899132Y547346D01*
X-899233Y547407D01*
X-899333Y547471D01*
X-899430Y547538D01*
X-899525Y547608D01*
X-899617Y547682D01*
X-899708Y547758D01*
X-899795Y547838D01*
X-899880Y547920D01*
X-899962Y548005D01*
X-900042Y548092D01*
X-900118Y548183D01*
X-900192Y548275D01*
X-900262Y548370D01*
X-900329Y548467D01*
X-900393Y548567D01*
X-900454Y548668D01*
X-900511Y548771D01*
X-900566Y548876D01*
X-900616Y548983D01*
X-900663Y549092D01*
X-900706Y549202D01*
X-900746Y549313D01*
X-900782Y549425D01*
X-900815Y549539D01*
X-900844Y549654D01*
X-900869Y549769D01*
X-900890Y549886D01*
X-900907Y550003D01*
X-900921Y550120D01*
X-900930Y550238D01*
X-900936Y550356D01*
X-900938Y550474D01*
X-900938Y559506D01*
X-900936Y559624D01*
X-900930Y559742D01*
X-900921Y559860D01*
X-900907Y559977D01*
X-900890Y560094D01*
X-900869Y560211D01*
X-900844Y560326D01*
X-900815Y560441D01*
X-900782Y560555D01*
X-900746Y560667D01*
X-900706Y560778D01*
X-900663Y560888D01*
X-900616Y560997D01*
X-900566Y561104D01*
X-900511Y561209D01*
X-900454Y561312D01*
X-900393Y561413D01*
X-900329Y561513D01*
X-900262Y561610D01*
X-900192Y561705D01*
X-900118Y561797D01*
X-900042Y561888D01*
X-899962Y561975D01*
X-899880Y562060D01*
X-899795Y562142D01*
X-899708Y562222D01*
X-899617Y562298D01*
X-899525Y562372D01*
X-899430Y562442D01*
X-899333Y562509D01*
X-899233Y562573D01*
X-899132Y562634D01*
X-899029Y562691D01*
X-898924Y562746D01*
X-898817Y562796D01*
X-898708Y562843D01*
X-898598Y562886D01*
X-898487Y562926D01*
X-898375Y562962D01*
X-898261Y562995D01*
X-898146Y563024D01*
X-898031Y563049D01*
X-897914Y563070D01*
X-897797Y563087D01*
X-897680Y563101D01*
X-897562Y563110D01*
X-897444Y563116D01*
X-897326Y563118D01*
X-893713Y563118D01*
X-887873Y559506D02*
X-883357Y563118D01*
X-883357Y546862D01*
X-887873Y546862D02*
X-878841Y546862D01*
X-773938Y551378D02*
X-773938Y563118D01*
X-773938Y551378D02*
X-773936Y551245D01*
X-773930Y551113D01*
X-773920Y550981D01*
X-773907Y550849D01*
X-773889Y550717D01*
X-773868Y550587D01*
X-773843Y550456D01*
X-773814Y550327D01*
X-773781Y550199D01*
X-773745Y550071D01*
X-773705Y549945D01*
X-773661Y549820D01*
X-773613Y549696D01*
X-773562Y549574D01*
X-773507Y549453D01*
X-773449Y549334D01*
X-773387Y549216D01*
X-773322Y549101D01*
X-773253Y548987D01*
X-773182Y548876D01*
X-773106Y548767D01*
X-773028Y548660D01*
X-772947Y548555D01*
X-772862Y548453D01*
X-772775Y548353D01*
X-772685Y548256D01*
X-772592Y548161D01*
X-772496Y548070D01*
X-772398Y547981D01*
X-772297Y547895D01*
X-772193Y547812D01*
X-772087Y547732D01*
X-771979Y547656D01*
X-771869Y547582D01*
X-771756Y547512D01*
X-771642Y547445D01*
X-771525Y547382D01*
X-771407Y547322D01*
X-771287Y547265D01*
X-771165Y547212D01*
X-771042Y547163D01*
X-770918Y547117D01*
X-770792Y547075D01*
X-770665Y547037D01*
X-770537Y547002D01*
X-770408Y546971D01*
X-770279Y546944D01*
X-770148Y546921D01*
X-770017Y546901D01*
X-769885Y546886D01*
X-769753Y546874D01*
X-769621Y546866D01*
X-769488Y546862D01*
X-769356Y546862D01*
X-769223Y546866D01*
X-769091Y546874D01*
X-768959Y546886D01*
X-768827Y546901D01*
X-768696Y546921D01*
X-768565Y546944D01*
X-768436Y546971D01*
X-768307Y547002D01*
X-768179Y547037D01*
X-768052Y547075D01*
X-767926Y547117D01*
X-767802Y547163D01*
X-767679Y547212D01*
X-767557Y547265D01*
X-767437Y547322D01*
X-767319Y547382D01*
X-767202Y547445D01*
X-767088Y547512D01*
X-766975Y547582D01*
X-766865Y547656D01*
X-766757Y547732D01*
X-766651Y547812D01*
X-766547Y547895D01*
X-766446Y547981D01*
X-766348Y548070D01*
X-766252Y548161D01*
X-766159Y548256D01*
X-766069Y548353D01*
X-765982Y548453D01*
X-765897Y548555D01*
X-765816Y548660D01*
X-765738Y548767D01*
X-765662Y548876D01*
X-765591Y548987D01*
X-765522Y549101D01*
X-765457Y549216D01*
X-765395Y549334D01*
X-765337Y549453D01*
X-765282Y549574D01*
X-765231Y549696D01*
X-765183Y549820D01*
X-765139Y549945D01*
X-765099Y550071D01*
X-765063Y550199D01*
X-765030Y550327D01*
X-765001Y550456D01*
X-764976Y550587D01*
X-764955Y550717D01*
X-764937Y550849D01*
X-764924Y550981D01*
X-764914Y551113D01*
X-764908Y551245D01*
X-764906Y551378D01*
X-764907Y551378D02*
X-764907Y563118D01*
X-757786Y559506D02*
X-753270Y563118D01*
X-753270Y546862D01*
X-748755Y546862D02*
X-757786Y546862D01*
X-710438Y546862D02*
X-710438Y563118D01*
X-705922Y563118D01*
X-705789Y563116D01*
X-705657Y563110D01*
X-705525Y563100D01*
X-705393Y563087D01*
X-705261Y563069D01*
X-705131Y563048D01*
X-705000Y563023D01*
X-704871Y562994D01*
X-704743Y562961D01*
X-704615Y562925D01*
X-704489Y562885D01*
X-704364Y562841D01*
X-704240Y562793D01*
X-704118Y562742D01*
X-703997Y562687D01*
X-703878Y562629D01*
X-703760Y562567D01*
X-703645Y562502D01*
X-703531Y562433D01*
X-703420Y562362D01*
X-703311Y562286D01*
X-703204Y562208D01*
X-703099Y562127D01*
X-702997Y562042D01*
X-702897Y561955D01*
X-702800Y561865D01*
X-702705Y561772D01*
X-702614Y561676D01*
X-702525Y561578D01*
X-702439Y561477D01*
X-702356Y561373D01*
X-702276Y561267D01*
X-702200Y561159D01*
X-702126Y561049D01*
X-702056Y560936D01*
X-701989Y560822D01*
X-701926Y560705D01*
X-701866Y560587D01*
X-701809Y560467D01*
X-701756Y560345D01*
X-701707Y560222D01*
X-701661Y560098D01*
X-701619Y559972D01*
X-701581Y559845D01*
X-701546Y559717D01*
X-701515Y559588D01*
X-701488Y559459D01*
X-701465Y559328D01*
X-701445Y559197D01*
X-701430Y559065D01*
X-701418Y558933D01*
X-701410Y558801D01*
X-701406Y558668D01*
X-701406Y558536D01*
X-701410Y558403D01*
X-701418Y558271D01*
X-701430Y558139D01*
X-701445Y558007D01*
X-701465Y557876D01*
X-701488Y557745D01*
X-701515Y557616D01*
X-701546Y557487D01*
X-701581Y557359D01*
X-701619Y557232D01*
X-701661Y557106D01*
X-701707Y556982D01*
X-701756Y556859D01*
X-701809Y556737D01*
X-701866Y556617D01*
X-701926Y556499D01*
X-701989Y556382D01*
X-702056Y556268D01*
X-702126Y556155D01*
X-702200Y556045D01*
X-702276Y555937D01*
X-702356Y555831D01*
X-702439Y555727D01*
X-702525Y555626D01*
X-702614Y555528D01*
X-702705Y555432D01*
X-702800Y555339D01*
X-702897Y555249D01*
X-702997Y555162D01*
X-703099Y555077D01*
X-703204Y554996D01*
X-703311Y554918D01*
X-703420Y554842D01*
X-703531Y554771D01*
X-703645Y554702D01*
X-703760Y554637D01*
X-703878Y554575D01*
X-703997Y554517D01*
X-704118Y554462D01*
X-704240Y554411D01*
X-704364Y554363D01*
X-704489Y554319D01*
X-704615Y554279D01*
X-704743Y554243D01*
X-704871Y554210D01*
X-705000Y554181D01*
X-705131Y554156D01*
X-705261Y554135D01*
X-705393Y554117D01*
X-705525Y554104D01*
X-705657Y554094D01*
X-705789Y554088D01*
X-705922Y554086D01*
X-705922Y554087D02*
X-710438Y554087D01*
X-705019Y554087D02*
X-701407Y546862D01*
X-694898Y559506D02*
X-690383Y563118D01*
X-690383Y546862D01*
X-694898Y546862D02*
X-685867Y546862D01*
X-718622Y423418D02*
X-718622Y407162D01*
X-723138Y423418D02*
X-714107Y423418D01*
X-707817Y423418D02*
X-707817Y407162D01*
X-707817Y423418D02*
X-703301Y423418D01*
X-703168Y423416D01*
X-703036Y423410D01*
X-702904Y423400D01*
X-702772Y423387D01*
X-702640Y423369D01*
X-702510Y423348D01*
X-702379Y423323D01*
X-702250Y423294D01*
X-702122Y423261D01*
X-701994Y423225D01*
X-701868Y423185D01*
X-701743Y423141D01*
X-701619Y423093D01*
X-701497Y423042D01*
X-701376Y422987D01*
X-701257Y422929D01*
X-701139Y422867D01*
X-701024Y422802D01*
X-700910Y422733D01*
X-700799Y422662D01*
X-700690Y422586D01*
X-700583Y422508D01*
X-700478Y422427D01*
X-700376Y422342D01*
X-700276Y422255D01*
X-700179Y422165D01*
X-700084Y422072D01*
X-699993Y421976D01*
X-699904Y421878D01*
X-699818Y421777D01*
X-699735Y421673D01*
X-699655Y421567D01*
X-699579Y421459D01*
X-699505Y421349D01*
X-699435Y421236D01*
X-699368Y421122D01*
X-699305Y421005D01*
X-699245Y420887D01*
X-699188Y420767D01*
X-699135Y420645D01*
X-699086Y420522D01*
X-699040Y420398D01*
X-698998Y420272D01*
X-698960Y420145D01*
X-698925Y420017D01*
X-698894Y419888D01*
X-698867Y419759D01*
X-698844Y419628D01*
X-698824Y419497D01*
X-698809Y419365D01*
X-698797Y419233D01*
X-698789Y419101D01*
X-698785Y418968D01*
X-698785Y418836D01*
X-698789Y418703D01*
X-698797Y418571D01*
X-698809Y418439D01*
X-698824Y418307D01*
X-698844Y418176D01*
X-698867Y418045D01*
X-698894Y417916D01*
X-698925Y417787D01*
X-698960Y417659D01*
X-698998Y417532D01*
X-699040Y417406D01*
X-699086Y417282D01*
X-699135Y417159D01*
X-699188Y417037D01*
X-699245Y416917D01*
X-699305Y416799D01*
X-699368Y416682D01*
X-699435Y416568D01*
X-699505Y416455D01*
X-699579Y416345D01*
X-699655Y416237D01*
X-699735Y416131D01*
X-699818Y416027D01*
X-699904Y415926D01*
X-699993Y415828D01*
X-700084Y415732D01*
X-700179Y415639D01*
X-700276Y415549D01*
X-700376Y415462D01*
X-700478Y415377D01*
X-700583Y415296D01*
X-700690Y415218D01*
X-700799Y415142D01*
X-700910Y415071D01*
X-701024Y415002D01*
X-701139Y414937D01*
X-701257Y414875D01*
X-701376Y414817D01*
X-701497Y414762D01*
X-701619Y414711D01*
X-701743Y414663D01*
X-701868Y414619D01*
X-701994Y414579D01*
X-702122Y414543D01*
X-702250Y414510D01*
X-702379Y414481D01*
X-702510Y414456D01*
X-702640Y414435D01*
X-702772Y414417D01*
X-702904Y414404D01*
X-703036Y414394D01*
X-703168Y414388D01*
X-703301Y414386D01*
X-703301Y414387D02*
X-707817Y414387D01*
X-692918Y419806D02*
X-688402Y423418D01*
X-688402Y407162D01*
X-683887Y407162D02*
X-692918Y407162D01*
X-540822Y407162D02*
X-540822Y423418D01*
X-536307Y423418D02*
X-545338Y423418D01*
X-530017Y423418D02*
X-530017Y407162D01*
X-530017Y423418D02*
X-525501Y423418D01*
X-525368Y423416D01*
X-525236Y423410D01*
X-525104Y423400D01*
X-524972Y423387D01*
X-524840Y423369D01*
X-524710Y423348D01*
X-524579Y423323D01*
X-524450Y423294D01*
X-524322Y423261D01*
X-524194Y423225D01*
X-524068Y423185D01*
X-523943Y423141D01*
X-523819Y423093D01*
X-523697Y423042D01*
X-523576Y422987D01*
X-523457Y422929D01*
X-523339Y422867D01*
X-523224Y422802D01*
X-523110Y422733D01*
X-522999Y422662D01*
X-522890Y422586D01*
X-522783Y422508D01*
X-522678Y422427D01*
X-522576Y422342D01*
X-522476Y422255D01*
X-522379Y422165D01*
X-522284Y422072D01*
X-522193Y421976D01*
X-522104Y421878D01*
X-522018Y421777D01*
X-521935Y421673D01*
X-521855Y421567D01*
X-521779Y421459D01*
X-521705Y421349D01*
X-521635Y421236D01*
X-521568Y421122D01*
X-521505Y421005D01*
X-521445Y420887D01*
X-521388Y420767D01*
X-521335Y420645D01*
X-521286Y420522D01*
X-521240Y420398D01*
X-521198Y420272D01*
X-521160Y420145D01*
X-521125Y420017D01*
X-521094Y419888D01*
X-521067Y419759D01*
X-521044Y419628D01*
X-521024Y419497D01*
X-521009Y419365D01*
X-520997Y419233D01*
X-520989Y419101D01*
X-520985Y418968D01*
X-520985Y418836D01*
X-520989Y418703D01*
X-520997Y418571D01*
X-521009Y418439D01*
X-521024Y418307D01*
X-521044Y418176D01*
X-521067Y418045D01*
X-521094Y417916D01*
X-521125Y417787D01*
X-521160Y417659D01*
X-521198Y417532D01*
X-521240Y417406D01*
X-521286Y417282D01*
X-521335Y417159D01*
X-521388Y417037D01*
X-521445Y416917D01*
X-521505Y416799D01*
X-521568Y416682D01*
X-521635Y416568D01*
X-521705Y416455D01*
X-521779Y416345D01*
X-521855Y416237D01*
X-521935Y416131D01*
X-522018Y416027D01*
X-522104Y415926D01*
X-522193Y415828D01*
X-522284Y415732D01*
X-522379Y415639D01*
X-522476Y415549D01*
X-522576Y415462D01*
X-522678Y415377D01*
X-522783Y415296D01*
X-522890Y415218D01*
X-522999Y415142D01*
X-523110Y415071D01*
X-523224Y415002D01*
X-523339Y414937D01*
X-523457Y414875D01*
X-523576Y414817D01*
X-523697Y414762D01*
X-523819Y414711D01*
X-523943Y414663D01*
X-524068Y414619D01*
X-524194Y414579D01*
X-524322Y414543D01*
X-524450Y414510D01*
X-524579Y414481D01*
X-524710Y414456D01*
X-524840Y414435D01*
X-524972Y414417D01*
X-525104Y414404D01*
X-525236Y414394D01*
X-525368Y414388D01*
X-525501Y414386D01*
X-525501Y414387D02*
X-530017Y414387D01*
X-515118Y407162D02*
X-510602Y407162D01*
X-510469Y407164D01*
X-510337Y407170D01*
X-510205Y407180D01*
X-510073Y407193D01*
X-509941Y407211D01*
X-509811Y407232D01*
X-509680Y407257D01*
X-509551Y407286D01*
X-509423Y407319D01*
X-509295Y407355D01*
X-509169Y407395D01*
X-509044Y407439D01*
X-508920Y407487D01*
X-508798Y407538D01*
X-508677Y407593D01*
X-508558Y407651D01*
X-508440Y407713D01*
X-508325Y407778D01*
X-508211Y407847D01*
X-508100Y407918D01*
X-507991Y407994D01*
X-507884Y408072D01*
X-507779Y408153D01*
X-507677Y408238D01*
X-507577Y408325D01*
X-507480Y408415D01*
X-507385Y408508D01*
X-507294Y408604D01*
X-507205Y408702D01*
X-507119Y408803D01*
X-507036Y408907D01*
X-506956Y409013D01*
X-506880Y409121D01*
X-506806Y409231D01*
X-506736Y409344D01*
X-506669Y409458D01*
X-506606Y409575D01*
X-506546Y409693D01*
X-506489Y409813D01*
X-506436Y409935D01*
X-506387Y410058D01*
X-506341Y410182D01*
X-506299Y410308D01*
X-506261Y410435D01*
X-506226Y410563D01*
X-506195Y410692D01*
X-506168Y410821D01*
X-506145Y410952D01*
X-506125Y411083D01*
X-506110Y411215D01*
X-506098Y411347D01*
X-506090Y411479D01*
X-506086Y411612D01*
X-506086Y411744D01*
X-506090Y411877D01*
X-506098Y412009D01*
X-506110Y412141D01*
X-506125Y412273D01*
X-506145Y412404D01*
X-506168Y412535D01*
X-506195Y412664D01*
X-506226Y412793D01*
X-506261Y412921D01*
X-506299Y413048D01*
X-506341Y413174D01*
X-506387Y413298D01*
X-506436Y413421D01*
X-506489Y413543D01*
X-506546Y413663D01*
X-506606Y413781D01*
X-506669Y413898D01*
X-506736Y414012D01*
X-506806Y414125D01*
X-506880Y414235D01*
X-506956Y414343D01*
X-507036Y414449D01*
X-507119Y414553D01*
X-507205Y414654D01*
X-507294Y414752D01*
X-507385Y414848D01*
X-507480Y414941D01*
X-507577Y415031D01*
X-507677Y415118D01*
X-507779Y415203D01*
X-507884Y415284D01*
X-507991Y415362D01*
X-508100Y415438D01*
X-508211Y415509D01*
X-508325Y415578D01*
X-508440Y415643D01*
X-508558Y415705D01*
X-508677Y415763D01*
X-508798Y415818D01*
X-508920Y415869D01*
X-509044Y415917D01*
X-509169Y415961D01*
X-509295Y416001D01*
X-509423Y416037D01*
X-509551Y416070D01*
X-509680Y416099D01*
X-509811Y416124D01*
X-509941Y416145D01*
X-510073Y416163D01*
X-510205Y416176D01*
X-510337Y416186D01*
X-510469Y416192D01*
X-510602Y416194D01*
X-509699Y423418D02*
X-515118Y423418D01*
X-509699Y423418D02*
X-509580Y423416D01*
X-509460Y423410D01*
X-509341Y423400D01*
X-509223Y423386D01*
X-509104Y423369D01*
X-508987Y423347D01*
X-508870Y423322D01*
X-508755Y423292D01*
X-508640Y423259D01*
X-508526Y423222D01*
X-508414Y423182D01*
X-508303Y423137D01*
X-508194Y423089D01*
X-508086Y423038D01*
X-507980Y422983D01*
X-507876Y422924D01*
X-507774Y422862D01*
X-507674Y422797D01*
X-507576Y422728D01*
X-507480Y422656D01*
X-507387Y422581D01*
X-507297Y422504D01*
X-507209Y422423D01*
X-507124Y422339D01*
X-507042Y422252D01*
X-506962Y422163D01*
X-506886Y422071D01*
X-506812Y421977D01*
X-506742Y421880D01*
X-506675Y421782D01*
X-506611Y421681D01*
X-506551Y421577D01*
X-506494Y421472D01*
X-506441Y421365D01*
X-506391Y421257D01*
X-506345Y421147D01*
X-506303Y421035D01*
X-506264Y420922D01*
X-506229Y420808D01*
X-506198Y420693D01*
X-506170Y420576D01*
X-506147Y420459D01*
X-506127Y420342D01*
X-506111Y420223D01*
X-506099Y420104D01*
X-506091Y419985D01*
X-506087Y419866D01*
X-506087Y419746D01*
X-506091Y419627D01*
X-506099Y419508D01*
X-506111Y419389D01*
X-506127Y419270D01*
X-506147Y419153D01*
X-506170Y419036D01*
X-506198Y418919D01*
X-506229Y418804D01*
X-506264Y418690D01*
X-506303Y418577D01*
X-506345Y418465D01*
X-506391Y418355D01*
X-506441Y418247D01*
X-506494Y418140D01*
X-506551Y418035D01*
X-506611Y417931D01*
X-506675Y417830D01*
X-506742Y417732D01*
X-506812Y417635D01*
X-506886Y417541D01*
X-506962Y417449D01*
X-507042Y417360D01*
X-507124Y417273D01*
X-507209Y417189D01*
X-507297Y417108D01*
X-507387Y417031D01*
X-507480Y416956D01*
X-507576Y416884D01*
X-507674Y416815D01*
X-507774Y416750D01*
X-507876Y416688D01*
X-507980Y416629D01*
X-508086Y416574D01*
X-508194Y416523D01*
X-508303Y416475D01*
X-508414Y416430D01*
X-508526Y416390D01*
X-508640Y416353D01*
X-508755Y416320D01*
X-508870Y416290D01*
X-508987Y416265D01*
X-509104Y416243D01*
X-509223Y416226D01*
X-509341Y416212D01*
X-509460Y416202D01*
X-509580Y416196D01*
X-509699Y416194D01*
X-509699Y416193D02*
X-513311Y416193D01*
X-451922Y245618D02*
X-451922Y229362D01*
X-456438Y245618D02*
X-447407Y245618D01*
X-441117Y245618D02*
X-441117Y229362D01*
X-441117Y245618D02*
X-436601Y245618D01*
X-436468Y245616D01*
X-436336Y245610D01*
X-436204Y245600D01*
X-436072Y245587D01*
X-435940Y245569D01*
X-435810Y245548D01*
X-435679Y245523D01*
X-435550Y245494D01*
X-435422Y245461D01*
X-435294Y245425D01*
X-435168Y245385D01*
X-435043Y245341D01*
X-434919Y245293D01*
X-434797Y245242D01*
X-434676Y245187D01*
X-434557Y245129D01*
X-434439Y245067D01*
X-434324Y245002D01*
X-434210Y244933D01*
X-434099Y244862D01*
X-433990Y244786D01*
X-433883Y244708D01*
X-433778Y244627D01*
X-433676Y244542D01*
X-433576Y244455D01*
X-433479Y244365D01*
X-433384Y244272D01*
X-433293Y244176D01*
X-433204Y244078D01*
X-433118Y243977D01*
X-433035Y243873D01*
X-432955Y243767D01*
X-432879Y243659D01*
X-432805Y243549D01*
X-432735Y243436D01*
X-432668Y243322D01*
X-432605Y243205D01*
X-432545Y243087D01*
X-432488Y242967D01*
X-432435Y242845D01*
X-432386Y242722D01*
X-432340Y242598D01*
X-432298Y242472D01*
X-432260Y242345D01*
X-432225Y242217D01*
X-432194Y242088D01*
X-432167Y241959D01*
X-432144Y241828D01*
X-432124Y241697D01*
X-432109Y241565D01*
X-432097Y241433D01*
X-432089Y241301D01*
X-432085Y241168D01*
X-432085Y241036D01*
X-432089Y240903D01*
X-432097Y240771D01*
X-432109Y240639D01*
X-432124Y240507D01*
X-432144Y240376D01*
X-432167Y240245D01*
X-432194Y240116D01*
X-432225Y239987D01*
X-432260Y239859D01*
X-432298Y239732D01*
X-432340Y239606D01*
X-432386Y239482D01*
X-432435Y239359D01*
X-432488Y239237D01*
X-432545Y239117D01*
X-432605Y238999D01*
X-432668Y238882D01*
X-432735Y238768D01*
X-432805Y238655D01*
X-432879Y238545D01*
X-432955Y238437D01*
X-433035Y238331D01*
X-433118Y238227D01*
X-433204Y238126D01*
X-433293Y238028D01*
X-433384Y237932D01*
X-433479Y237839D01*
X-433576Y237749D01*
X-433676Y237662D01*
X-433778Y237577D01*
X-433883Y237496D01*
X-433990Y237418D01*
X-434099Y237342D01*
X-434210Y237271D01*
X-434324Y237202D01*
X-434439Y237137D01*
X-434557Y237075D01*
X-434676Y237017D01*
X-434797Y236962D01*
X-434919Y236911D01*
X-435043Y236863D01*
X-435168Y236819D01*
X-435294Y236779D01*
X-435422Y236743D01*
X-435550Y236710D01*
X-435679Y236681D01*
X-435810Y236656D01*
X-435940Y236635D01*
X-436072Y236617D01*
X-436204Y236604D01*
X-436336Y236594D01*
X-436468Y236588D01*
X-436601Y236586D01*
X-436601Y236587D02*
X-441117Y236587D01*
X-421251Y245618D02*
X-421126Y245616D01*
X-421001Y245610D01*
X-420876Y245601D01*
X-420752Y245587D01*
X-420628Y245570D01*
X-420504Y245549D01*
X-420382Y245524D01*
X-420260Y245495D01*
X-420139Y245463D01*
X-420019Y245427D01*
X-419900Y245387D01*
X-419783Y245344D01*
X-419667Y245297D01*
X-419552Y245246D01*
X-419440Y245192D01*
X-419328Y245134D01*
X-419219Y245074D01*
X-419112Y245009D01*
X-419006Y244942D01*
X-418903Y244871D01*
X-418802Y244797D01*
X-418703Y244720D01*
X-418607Y244640D01*
X-418513Y244557D01*
X-418422Y244472D01*
X-418333Y244383D01*
X-418248Y244292D01*
X-418165Y244198D01*
X-418085Y244102D01*
X-418008Y244003D01*
X-417934Y243902D01*
X-417863Y243799D01*
X-417796Y243693D01*
X-417731Y243586D01*
X-417671Y243477D01*
X-417613Y243365D01*
X-417559Y243253D01*
X-417508Y243138D01*
X-417461Y243022D01*
X-417418Y242905D01*
X-417378Y242786D01*
X-417342Y242666D01*
X-417310Y242545D01*
X-417281Y242423D01*
X-417256Y242301D01*
X-417235Y242177D01*
X-417218Y242053D01*
X-417204Y241929D01*
X-417195Y241804D01*
X-417189Y241679D01*
X-417187Y241554D01*
X-421251Y245618D02*
X-421394Y245616D01*
X-421536Y245610D01*
X-421679Y245600D01*
X-421821Y245587D01*
X-421962Y245569D01*
X-422104Y245548D01*
X-422244Y245523D01*
X-422384Y245494D01*
X-422523Y245461D01*
X-422661Y245424D01*
X-422798Y245384D01*
X-422933Y245340D01*
X-423068Y245292D01*
X-423201Y245240D01*
X-423333Y245185D01*
X-423463Y245126D01*
X-423591Y245064D01*
X-423718Y244998D01*
X-423843Y244929D01*
X-423966Y244857D01*
X-424087Y244781D01*
X-424205Y244702D01*
X-424322Y244619D01*
X-424436Y244534D01*
X-424548Y244445D01*
X-424657Y244354D01*
X-424764Y244259D01*
X-424869Y244162D01*
X-424970Y244061D01*
X-425069Y243958D01*
X-425165Y243853D01*
X-425258Y243744D01*
X-425348Y243633D01*
X-425435Y243520D01*
X-425519Y243405D01*
X-425599Y243287D01*
X-425677Y243167D01*
X-425751Y243045D01*
X-425821Y242921D01*
X-425889Y242795D01*
X-425952Y242667D01*
X-426013Y242538D01*
X-426070Y242407D01*
X-426123Y242275D01*
X-426172Y242141D01*
X-426218Y242006D01*
X-418542Y238393D02*
X-418448Y238485D01*
X-418358Y238579D01*
X-418270Y238676D01*
X-418185Y238776D01*
X-418103Y238878D01*
X-418024Y238983D01*
X-417949Y239090D01*
X-417877Y239199D01*
X-417808Y239310D01*
X-417742Y239424D01*
X-417680Y239539D01*
X-417621Y239656D01*
X-417566Y239775D01*
X-417515Y239895D01*
X-417467Y240017D01*
X-417422Y240140D01*
X-417382Y240264D01*
X-417345Y240390D01*
X-417312Y240517D01*
X-417283Y240644D01*
X-417257Y240773D01*
X-417236Y240902D01*
X-417218Y241032D01*
X-417205Y241162D01*
X-417195Y241292D01*
X-417189Y241423D01*
X-417187Y241554D01*
X-418541Y238393D02*
X-426218Y229362D01*
X-417187Y229362D01*
D11*
X-660908Y229108D02*
X-672592Y229108D01*
X-672592Y235599D02*
X-665452Y229108D01*
X-668048Y231704D02*
X-660908Y235599D01*
X-665452Y240101D02*
X-668697Y247890D01*
X-662206Y247890D02*
X-665452Y240101D01*
X-665452Y253055D02*
X-665452Y260844D01*
X-660908Y272395D02*
X-672592Y272395D01*
X-660908Y272395D02*
X-660908Y277588D01*
X-660908Y282301D02*
X-660908Y287494D01*
X-660908Y282301D02*
X-672592Y282301D01*
X-672592Y287494D01*
X-667399Y286196D02*
X-667399Y282301D01*
X-672592Y292185D02*
X-660908Y292185D01*
X-672592Y292185D02*
X-672592Y295430D01*
X-672590Y295543D01*
X-672584Y295656D01*
X-672574Y295769D01*
X-672560Y295882D01*
X-672543Y295994D01*
X-672521Y296105D01*
X-672496Y296215D01*
X-672466Y296325D01*
X-672433Y296433D01*
X-672396Y296540D01*
X-672356Y296646D01*
X-672311Y296750D01*
X-672263Y296853D01*
X-672212Y296954D01*
X-672157Y297053D01*
X-672099Y297150D01*
X-672037Y297245D01*
X-671972Y297338D01*
X-671904Y297428D01*
X-671833Y297516D01*
X-671758Y297602D01*
X-671681Y297685D01*
X-671601Y297765D01*
X-671518Y297842D01*
X-671432Y297917D01*
X-671344Y297988D01*
X-671254Y298056D01*
X-671161Y298121D01*
X-671066Y298183D01*
X-670969Y298241D01*
X-670870Y298296D01*
X-670769Y298347D01*
X-670666Y298395D01*
X-670562Y298440D01*
X-670456Y298480D01*
X-670349Y298517D01*
X-670241Y298550D01*
X-670131Y298580D01*
X-670021Y298605D01*
X-669910Y298627D01*
X-669798Y298644D01*
X-669685Y298658D01*
X-669572Y298668D01*
X-669459Y298674D01*
X-669346Y298676D01*
X-664154Y298676D01*
X-664041Y298674D01*
X-663928Y298668D01*
X-663815Y298658D01*
X-663702Y298644D01*
X-663590Y298627D01*
X-663479Y298605D01*
X-663369Y298580D01*
X-663259Y298550D01*
X-663151Y298517D01*
X-663044Y298480D01*
X-662938Y298440D01*
X-662834Y298395D01*
X-662731Y298347D01*
X-662630Y298296D01*
X-662531Y298241D01*
X-662434Y298183D01*
X-662339Y298121D01*
X-662246Y298056D01*
X-662156Y297988D01*
X-662068Y297917D01*
X-661982Y297842D01*
X-661899Y297765D01*
X-661819Y297685D01*
X-661742Y297602D01*
X-661667Y297516D01*
X-661596Y297428D01*
X-661528Y297338D01*
X-661463Y297245D01*
X-661401Y297150D01*
X-661343Y297053D01*
X-661288Y296954D01*
X-661237Y296853D01*
X-661189Y296750D01*
X-661144Y296646D01*
X-661104Y296540D01*
X-661067Y296433D01*
X-661034Y296325D01*
X-661004Y296215D01*
X-660979Y296105D01*
X-660957Y295994D01*
X-660940Y295882D01*
X-660926Y295769D01*
X-660916Y295656D01*
X-660910Y295543D01*
X-660908Y295430D01*
X-660908Y292185D01*
X-669996Y303996D02*
X-672592Y307241D01*
X-660908Y307241D01*
X-660908Y303996D02*
X-660908Y310487D01*
X-532892Y343408D02*
X-521208Y343408D01*
X-532892Y343408D02*
X-532892Y346654D01*
X-532890Y346767D01*
X-532884Y346880D01*
X-532874Y346993D01*
X-532860Y347106D01*
X-532843Y347218D01*
X-532821Y347329D01*
X-532796Y347439D01*
X-532766Y347549D01*
X-532733Y347657D01*
X-532696Y347764D01*
X-532656Y347870D01*
X-532611Y347974D01*
X-532563Y348077D01*
X-532512Y348178D01*
X-532457Y348277D01*
X-532399Y348374D01*
X-532337Y348469D01*
X-532272Y348562D01*
X-532204Y348652D01*
X-532133Y348740D01*
X-532058Y348826D01*
X-531981Y348909D01*
X-531901Y348989D01*
X-531818Y349066D01*
X-531732Y349141D01*
X-531644Y349212D01*
X-531554Y349280D01*
X-531461Y349345D01*
X-531366Y349407D01*
X-531269Y349465D01*
X-531170Y349520D01*
X-531069Y349571D01*
X-530966Y349619D01*
X-530862Y349664D01*
X-530756Y349704D01*
X-530649Y349741D01*
X-530541Y349774D01*
X-530431Y349804D01*
X-530321Y349829D01*
X-530210Y349851D01*
X-530098Y349868D01*
X-529985Y349882D01*
X-529872Y349892D01*
X-529759Y349898D01*
X-529646Y349900D01*
X-529533Y349898D01*
X-529420Y349892D01*
X-529307Y349882D01*
X-529194Y349868D01*
X-529082Y349851D01*
X-528971Y349829D01*
X-528861Y349804D01*
X-528751Y349774D01*
X-528643Y349741D01*
X-528536Y349704D01*
X-528430Y349664D01*
X-528326Y349619D01*
X-528223Y349571D01*
X-528122Y349520D01*
X-528023Y349465D01*
X-527926Y349407D01*
X-527831Y349345D01*
X-527738Y349280D01*
X-527648Y349212D01*
X-527560Y349141D01*
X-527474Y349066D01*
X-527391Y348989D01*
X-527311Y348909D01*
X-527234Y348826D01*
X-527159Y348740D01*
X-527088Y348652D01*
X-527020Y348562D01*
X-526955Y348469D01*
X-526893Y348374D01*
X-526835Y348277D01*
X-526780Y348178D01*
X-526729Y348077D01*
X-526681Y347974D01*
X-526636Y347870D01*
X-526596Y347764D01*
X-526559Y347657D01*
X-526526Y347549D01*
X-526496Y347439D01*
X-526471Y347329D01*
X-526449Y347218D01*
X-526432Y347106D01*
X-526418Y346993D01*
X-526408Y346880D01*
X-526402Y346767D01*
X-526400Y346654D01*
X-526401Y346654D02*
X-526401Y343408D01*
X-526401Y347303D02*
X-521208Y349899D01*
X-521208Y354764D02*
X-521208Y358010D01*
X-521210Y358123D01*
X-521216Y358236D01*
X-521226Y358349D01*
X-521240Y358462D01*
X-521257Y358574D01*
X-521279Y358685D01*
X-521304Y358795D01*
X-521334Y358905D01*
X-521367Y359013D01*
X-521404Y359120D01*
X-521444Y359226D01*
X-521489Y359330D01*
X-521537Y359433D01*
X-521588Y359534D01*
X-521643Y359633D01*
X-521701Y359730D01*
X-521763Y359825D01*
X-521828Y359918D01*
X-521896Y360008D01*
X-521967Y360096D01*
X-522042Y360182D01*
X-522119Y360265D01*
X-522199Y360345D01*
X-522282Y360422D01*
X-522368Y360497D01*
X-522456Y360568D01*
X-522546Y360636D01*
X-522639Y360701D01*
X-522734Y360763D01*
X-522831Y360821D01*
X-522930Y360876D01*
X-523031Y360927D01*
X-523134Y360975D01*
X-523238Y361020D01*
X-523344Y361060D01*
X-523451Y361097D01*
X-523559Y361130D01*
X-523669Y361160D01*
X-523779Y361185D01*
X-523890Y361207D01*
X-524002Y361224D01*
X-524115Y361238D01*
X-524228Y361248D01*
X-524341Y361254D01*
X-524454Y361256D01*
X-524567Y361254D01*
X-524680Y361248D01*
X-524793Y361238D01*
X-524906Y361224D01*
X-525018Y361207D01*
X-525129Y361185D01*
X-525239Y361160D01*
X-525349Y361130D01*
X-525457Y361097D01*
X-525564Y361060D01*
X-525670Y361020D01*
X-525774Y360975D01*
X-525877Y360927D01*
X-525978Y360876D01*
X-526077Y360821D01*
X-526174Y360763D01*
X-526269Y360701D01*
X-526362Y360636D01*
X-526452Y360568D01*
X-526540Y360497D01*
X-526626Y360422D01*
X-526709Y360345D01*
X-526789Y360265D01*
X-526866Y360182D01*
X-526941Y360096D01*
X-527012Y360008D01*
X-527080Y359918D01*
X-527145Y359825D01*
X-527207Y359730D01*
X-527265Y359633D01*
X-527320Y359534D01*
X-527371Y359433D01*
X-527419Y359330D01*
X-527464Y359226D01*
X-527504Y359120D01*
X-527541Y359013D01*
X-527574Y358905D01*
X-527604Y358795D01*
X-527629Y358685D01*
X-527651Y358574D01*
X-527668Y358462D01*
X-527682Y358349D01*
X-527692Y358236D01*
X-527698Y358123D01*
X-527700Y358010D01*
X-532892Y358659D02*
X-532892Y354764D01*
X-532892Y358659D02*
X-532890Y358760D01*
X-532884Y358860D01*
X-532874Y358960D01*
X-532861Y359060D01*
X-532843Y359159D01*
X-532822Y359258D01*
X-532797Y359355D01*
X-532768Y359452D01*
X-532735Y359547D01*
X-532699Y359641D01*
X-532659Y359733D01*
X-532616Y359824D01*
X-532569Y359913D01*
X-532519Y360000D01*
X-532465Y360086D01*
X-532408Y360169D01*
X-532348Y360249D01*
X-532285Y360328D01*
X-532218Y360404D01*
X-532149Y360477D01*
X-532077Y360547D01*
X-532003Y360615D01*
X-531926Y360680D01*
X-531846Y360741D01*
X-531764Y360800D01*
X-531680Y360855D01*
X-531594Y360907D01*
X-531506Y360956D01*
X-531416Y361001D01*
X-531324Y361043D01*
X-531231Y361081D01*
X-531136Y361115D01*
X-531041Y361146D01*
X-530944Y361173D01*
X-530846Y361196D01*
X-530747Y361216D01*
X-530647Y361231D01*
X-530547Y361243D01*
X-530447Y361251D01*
X-530346Y361255D01*
X-530246Y361255D01*
X-530145Y361251D01*
X-530045Y361243D01*
X-529945Y361231D01*
X-529845Y361216D01*
X-529746Y361196D01*
X-529648Y361173D01*
X-529551Y361146D01*
X-529456Y361115D01*
X-529361Y361081D01*
X-529268Y361043D01*
X-529176Y361001D01*
X-529086Y360956D01*
X-528998Y360907D01*
X-528912Y360855D01*
X-528828Y360800D01*
X-528746Y360741D01*
X-528666Y360680D01*
X-528589Y360615D01*
X-528515Y360547D01*
X-528443Y360477D01*
X-528374Y360404D01*
X-528307Y360328D01*
X-528244Y360249D01*
X-528184Y360169D01*
X-528127Y360086D01*
X-528073Y360000D01*
X-528023Y359913D01*
X-527976Y359824D01*
X-527933Y359733D01*
X-527893Y359641D01*
X-527857Y359547D01*
X-527824Y359452D01*
X-527795Y359355D01*
X-527770Y359258D01*
X-527749Y359159D01*
X-527731Y359060D01*
X-527718Y358960D01*
X-527708Y358860D01*
X-527702Y358760D01*
X-527700Y358659D01*
X-527699Y358659D02*
X-527699Y356063D01*
X-533908Y130754D02*
X-545592Y130754D01*
X-545592Y133999D02*
X-545592Y127508D01*
X-542996Y138176D02*
X-545592Y141422D01*
X-533908Y141422D01*
X-533908Y144667D02*
X-533908Y138176D01*
X-749808Y102108D02*
X-761492Y102108D01*
X-761492Y105354D01*
X-761490Y105467D01*
X-761484Y105580D01*
X-761474Y105693D01*
X-761460Y105806D01*
X-761443Y105918D01*
X-761421Y106029D01*
X-761396Y106139D01*
X-761366Y106249D01*
X-761333Y106357D01*
X-761296Y106464D01*
X-761256Y106570D01*
X-761211Y106674D01*
X-761163Y106777D01*
X-761112Y106878D01*
X-761057Y106977D01*
X-760999Y107074D01*
X-760937Y107169D01*
X-760872Y107262D01*
X-760804Y107352D01*
X-760733Y107440D01*
X-760658Y107526D01*
X-760581Y107609D01*
X-760501Y107689D01*
X-760418Y107766D01*
X-760332Y107841D01*
X-760244Y107912D01*
X-760154Y107980D01*
X-760061Y108045D01*
X-759966Y108107D01*
X-759869Y108165D01*
X-759770Y108220D01*
X-759669Y108271D01*
X-759566Y108319D01*
X-759462Y108364D01*
X-759356Y108404D01*
X-759249Y108441D01*
X-759141Y108474D01*
X-759031Y108504D01*
X-758921Y108529D01*
X-758810Y108551D01*
X-758698Y108568D01*
X-758585Y108582D01*
X-758472Y108592D01*
X-758359Y108598D01*
X-758246Y108600D01*
X-758133Y108598D01*
X-758020Y108592D01*
X-757907Y108582D01*
X-757794Y108568D01*
X-757682Y108551D01*
X-757571Y108529D01*
X-757461Y108504D01*
X-757351Y108474D01*
X-757243Y108441D01*
X-757136Y108404D01*
X-757030Y108364D01*
X-756926Y108319D01*
X-756823Y108271D01*
X-756722Y108220D01*
X-756623Y108165D01*
X-756526Y108107D01*
X-756431Y108045D01*
X-756338Y107980D01*
X-756248Y107912D01*
X-756160Y107841D01*
X-756074Y107766D01*
X-755991Y107689D01*
X-755911Y107609D01*
X-755834Y107526D01*
X-755759Y107440D01*
X-755688Y107352D01*
X-755620Y107262D01*
X-755555Y107169D01*
X-755493Y107074D01*
X-755435Y106977D01*
X-755380Y106878D01*
X-755329Y106777D01*
X-755281Y106674D01*
X-755236Y106570D01*
X-755196Y106464D01*
X-755159Y106357D01*
X-755126Y106249D01*
X-755096Y106139D01*
X-755071Y106029D01*
X-755049Y105918D01*
X-755032Y105806D01*
X-755018Y105693D01*
X-755008Y105580D01*
X-755002Y105467D01*
X-755000Y105354D01*
X-755001Y105354D02*
X-755001Y102108D01*
X-755001Y106003D02*
X-749808Y108599D01*
X-758571Y119955D02*
X-758678Y119953D01*
X-758784Y119947D01*
X-758890Y119937D01*
X-758996Y119924D01*
X-759102Y119906D01*
X-759206Y119885D01*
X-759310Y119860D01*
X-759413Y119831D01*
X-759514Y119799D01*
X-759614Y119762D01*
X-759713Y119722D01*
X-759811Y119679D01*
X-759907Y119632D01*
X-760001Y119581D01*
X-760093Y119527D01*
X-760183Y119470D01*
X-760271Y119410D01*
X-760356Y119346D01*
X-760439Y119279D01*
X-760520Y119209D01*
X-760598Y119137D01*
X-760674Y119061D01*
X-760746Y118983D01*
X-760816Y118902D01*
X-760883Y118819D01*
X-760947Y118734D01*
X-761007Y118646D01*
X-761064Y118556D01*
X-761118Y118464D01*
X-761169Y118370D01*
X-761216Y118274D01*
X-761259Y118176D01*
X-761299Y118077D01*
X-761336Y117977D01*
X-761368Y117876D01*
X-761397Y117773D01*
X-761422Y117669D01*
X-761443Y117565D01*
X-761461Y117459D01*
X-761474Y117353D01*
X-761484Y117247D01*
X-761490Y117141D01*
X-761492Y117034D01*
X-761490Y116913D01*
X-761484Y116792D01*
X-761474Y116672D01*
X-761461Y116551D01*
X-761443Y116432D01*
X-761422Y116312D01*
X-761397Y116194D01*
X-761368Y116077D01*
X-761335Y115960D01*
X-761299Y115845D01*
X-761258Y115731D01*
X-761215Y115618D01*
X-761167Y115506D01*
X-761116Y115397D01*
X-761061Y115289D01*
X-761003Y115182D01*
X-760942Y115078D01*
X-760877Y114976D01*
X-760809Y114876D01*
X-760738Y114778D01*
X-760664Y114682D01*
X-760587Y114589D01*
X-760506Y114499D01*
X-760423Y114411D01*
X-760337Y114326D01*
X-760248Y114243D01*
X-760157Y114164D01*
X-760063Y114087D01*
X-759967Y114014D01*
X-759869Y113944D01*
X-759768Y113877D01*
X-759665Y113813D01*
X-759560Y113753D01*
X-759453Y113696D01*
X-759345Y113642D01*
X-759235Y113592D01*
X-759123Y113546D01*
X-759010Y113503D01*
X-758895Y113464D01*
X-756299Y118982D02*
X-756376Y119061D01*
X-756457Y119137D01*
X-756540Y119210D01*
X-756625Y119280D01*
X-756713Y119347D01*
X-756803Y119411D01*
X-756895Y119471D01*
X-756990Y119528D01*
X-757086Y119582D01*
X-757184Y119633D01*
X-757284Y119680D01*
X-757386Y119724D01*
X-757489Y119764D01*
X-757593Y119800D01*
X-757699Y119832D01*
X-757805Y119861D01*
X-757913Y119886D01*
X-758021Y119908D01*
X-758131Y119925D01*
X-758240Y119939D01*
X-758350Y119948D01*
X-758461Y119954D01*
X-758571Y119956D01*
X-756299Y118982D02*
X-749808Y113464D01*
X-749808Y119955D01*
X-389946Y445008D02*
X-389946Y456692D01*
X-386701Y456692D02*
X-393192Y456692D01*
X-381974Y456692D02*
X-381974Y445008D01*
X-381974Y456692D02*
X-378728Y456692D01*
X-378615Y456690D01*
X-378502Y456684D01*
X-378389Y456674D01*
X-378276Y456660D01*
X-378164Y456643D01*
X-378053Y456621D01*
X-377943Y456596D01*
X-377833Y456566D01*
X-377725Y456533D01*
X-377618Y456496D01*
X-377512Y456456D01*
X-377408Y456411D01*
X-377305Y456363D01*
X-377204Y456312D01*
X-377105Y456257D01*
X-377008Y456199D01*
X-376913Y456137D01*
X-376820Y456072D01*
X-376730Y456004D01*
X-376642Y455933D01*
X-376556Y455858D01*
X-376473Y455781D01*
X-376393Y455701D01*
X-376316Y455618D01*
X-376241Y455532D01*
X-376170Y455444D01*
X-376102Y455354D01*
X-376037Y455261D01*
X-375975Y455166D01*
X-375917Y455069D01*
X-375862Y454970D01*
X-375811Y454869D01*
X-375763Y454766D01*
X-375718Y454662D01*
X-375678Y454556D01*
X-375641Y454449D01*
X-375608Y454341D01*
X-375578Y454231D01*
X-375553Y454121D01*
X-375531Y454010D01*
X-375514Y453898D01*
X-375500Y453785D01*
X-375490Y453672D01*
X-375484Y453559D01*
X-375482Y453446D01*
X-375484Y453333D01*
X-375490Y453220D01*
X-375500Y453107D01*
X-375514Y452994D01*
X-375531Y452882D01*
X-375553Y452771D01*
X-375578Y452661D01*
X-375608Y452551D01*
X-375641Y452443D01*
X-375678Y452336D01*
X-375718Y452230D01*
X-375763Y452126D01*
X-375811Y452023D01*
X-375862Y451922D01*
X-375917Y451823D01*
X-375975Y451726D01*
X-376037Y451631D01*
X-376102Y451538D01*
X-376170Y451448D01*
X-376241Y451360D01*
X-376316Y451274D01*
X-376393Y451191D01*
X-376473Y451111D01*
X-376556Y451034D01*
X-376642Y450959D01*
X-376730Y450888D01*
X-376820Y450820D01*
X-376913Y450755D01*
X-377008Y450693D01*
X-377105Y450635D01*
X-377204Y450580D01*
X-377305Y450529D01*
X-377408Y450481D01*
X-377512Y450436D01*
X-377618Y450396D01*
X-377725Y450359D01*
X-377833Y450326D01*
X-377943Y450296D01*
X-378053Y450271D01*
X-378164Y450249D01*
X-378276Y450232D01*
X-378389Y450218D01*
X-378502Y450208D01*
X-378615Y450202D01*
X-378728Y450200D01*
X-378728Y450201D02*
X-381974Y450201D01*
X-371094Y447604D02*
X-368498Y456692D01*
X-371094Y447604D02*
X-364603Y447604D01*
X-366550Y450201D02*
X-366550Y445008D01*
D12*
X-791736Y537210D02*
X-791734Y537294D01*
X-791728Y537378D01*
X-791718Y537462D01*
X-791705Y537545D01*
X-791687Y537627D01*
X-791665Y537709D01*
X-791640Y537789D01*
X-791611Y537868D01*
X-791578Y537946D01*
X-791542Y538022D01*
X-791502Y538096D01*
X-791459Y538168D01*
X-791413Y538238D01*
X-791363Y538306D01*
X-791310Y538372D01*
X-791254Y538435D01*
X-791195Y538495D01*
X-791133Y538552D01*
X-791069Y538607D01*
X-791002Y538658D01*
X-790933Y538706D01*
X-790862Y538751D01*
X-790789Y538793D01*
X-790714Y538831D01*
X-790637Y538865D01*
X-790559Y538896D01*
X-790479Y538923D01*
X-790398Y538947D01*
X-790316Y538966D01*
X-790233Y538982D01*
X-790150Y538994D01*
X-790066Y539002D01*
X-789982Y539006D01*
X-789898Y539006D01*
X-789814Y539002D01*
X-789730Y538994D01*
X-789647Y538982D01*
X-789564Y538966D01*
X-789482Y538947D01*
X-789401Y538923D01*
X-789321Y538896D01*
X-789243Y538865D01*
X-789166Y538831D01*
X-789091Y538793D01*
X-789018Y538751D01*
X-788947Y538706D01*
X-788878Y538658D01*
X-788811Y538607D01*
X-788747Y538552D01*
X-788685Y538495D01*
X-788626Y538435D01*
X-788570Y538372D01*
X-788517Y538306D01*
X-788467Y538238D01*
X-788421Y538168D01*
X-788378Y538096D01*
X-788338Y538022D01*
X-788302Y537946D01*
X-788269Y537868D01*
X-788240Y537789D01*
X-788215Y537709D01*
X-788193Y537627D01*
X-788175Y537545D01*
X-788162Y537462D01*
X-788152Y537378D01*
X-788146Y537294D01*
X-788144Y537210D01*
X-788146Y537126D01*
X-788152Y537042D01*
X-788162Y536958D01*
X-788175Y536875D01*
X-788193Y536793D01*
X-788215Y536711D01*
X-788240Y536631D01*
X-788269Y536552D01*
X-788302Y536474D01*
X-788338Y536398D01*
X-788378Y536324D01*
X-788421Y536252D01*
X-788467Y536182D01*
X-788517Y536114D01*
X-788570Y536048D01*
X-788626Y535985D01*
X-788685Y535925D01*
X-788747Y535868D01*
X-788811Y535813D01*
X-788878Y535762D01*
X-788947Y535714D01*
X-789018Y535669D01*
X-789091Y535627D01*
X-789166Y535589D01*
X-789243Y535555D01*
X-789321Y535524D01*
X-789401Y535497D01*
X-789482Y535473D01*
X-789564Y535454D01*
X-789647Y535438D01*
X-789730Y535426D01*
X-789814Y535418D01*
X-789898Y535414D01*
X-789982Y535414D01*
X-790066Y535418D01*
X-790150Y535426D01*
X-790233Y535438D01*
X-790316Y535454D01*
X-790398Y535473D01*
X-790479Y535497D01*
X-790559Y535524D01*
X-790637Y535555D01*
X-790714Y535589D01*
X-790789Y535627D01*
X-790862Y535669D01*
X-790933Y535714D01*
X-791002Y535762D01*
X-791069Y535813D01*
X-791133Y535868D01*
X-791195Y535925D01*
X-791254Y535985D01*
X-791310Y536048D01*
X-791363Y536114D01*
X-791413Y536182D01*
X-791459Y536252D01*
X-791502Y536324D01*
X-791542Y536398D01*
X-791578Y536474D01*
X-791611Y536552D01*
X-791640Y536631D01*
X-791665Y536711D01*
X-791687Y536793D01*
X-791705Y536875D01*
X-791718Y536958D01*
X-791728Y537042D01*
X-791734Y537126D01*
X-791736Y537210D01*
D13*
X-876300Y481300D03*
X-876300Y509300D03*
D14*
X-1024810Y411780D03*
X-1024810Y405280D03*
X-1024810Y398780D03*
X-1024810Y392280D03*
X-1024810Y385780D03*
D15*
X-1051560Y438280D03*
X-1051560Y410780D03*
X-1051560Y386780D03*
X-1051560Y359280D03*
D16*
X-584200Y243500D03*
X-584200Y264500D03*
D17*
X-723900Y481080D03*
X-723900Y509520D03*
D16*
X-670400Y109000D03*
X-650400Y109000D03*
D18*
X-660400Y141500D03*
D19*
X-584200Y333400D03*
X-584200Y352400D03*
D20*
X-584200Y201500D03*
X-574700Y179500D03*
X-593700Y179500D03*
D17*
X-660400Y433320D03*
X-660400Y404880D03*
X-508000Y227080D03*
X-508000Y255520D03*
X-584200Y433320D03*
X-584200Y404880D03*
D21*
X-366780Y495300D03*
X-395220Y495300D03*
D22*
X-1031800Y98500D03*
X-269800Y606500D03*
D23*
X-792850Y489000D03*
D24*
X-806350Y489000D03*
D25*
X-806350Y501000D03*
D26*
X-792850Y501000D03*
D27*
X-927290Y509300D02*
X-1024810Y411780D01*
X-927290Y509300D02*
X-876300Y509300D01*
X-868000Y501000D01*
X-806350Y501000D01*
X-801410Y505940D01*
X-801410Y507428D01*
X-788138Y520700D01*
X-735080Y520700D02*
X-723900Y509520D01*
X-735080Y520700D02*
X-788138Y520700D01*
X-723900Y509520D02*
X-636520Y509520D01*
X-584200Y457200D02*
X-584200Y433320D01*
X-584200Y457200D02*
X-636520Y509520D01*
X-584200Y404880D02*
X-584200Y352400D01*
X-584200Y404880D02*
X-584200Y433320D01*
X-784930Y481080D02*
X-792850Y489000D01*
X-784930Y481080D02*
X-723900Y481080D01*
X-685800Y144400D02*
X-650400Y109000D01*
X-685800Y144400D02*
X-685800Y165100D01*
X-671400Y179500D01*
X-593700Y179500D01*
X-806350Y469900D02*
X-806350Y489000D01*
X-806350Y469900D02*
X-800100Y469900D01*
X-806350Y489000D02*
X-825500Y489000D01*
X-825500Y495300D01*
X-596900Y179500D02*
X-593700Y179500D01*
X-596900Y179500D02*
X-596900Y190500D01*
X-622300Y109000D02*
X-650400Y109000D01*
X-622300Y109000D02*
X-622300Y101600D01*
X-609600Y190500D02*
X-596900Y190500D01*
X-825500Y495300D02*
X-838200Y495300D01*
X-800100Y469900D02*
X-800100Y457200D01*
X-812800Y457200D01*
X-876300Y469900D02*
X-876300Y481300D01*
X-876300Y469900D02*
X-889000Y469900D01*
X-1041400Y359280D02*
X-1051560Y359280D01*
X-1051560Y438280D01*
X-1054100Y438280D01*
X-1054100Y457200D01*
X-1041400Y457200D01*
X-1041400Y469900D01*
X-1041400Y359280D02*
X-1041400Y317500D01*
X-889000Y444500D02*
X-889000Y469900D01*
X-812800Y457200D02*
X-812800Y444500D01*
X-622300Y101600D02*
X-584200Y101600D01*
X-609600Y190500D02*
X-609600Y203200D01*
X-395220Y495300D02*
X-366780Y495300D01*
X-788910Y497060D02*
X-792850Y501000D01*
X-788910Y497060D02*
X-786522Y497060D01*
X-784762Y495300D01*
X-698500Y495300D01*
X-660400Y457200D01*
X-660400Y433320D01*
X-660400Y404880D02*
X-672210Y393070D01*
X-711200Y149800D02*
X-670400Y109000D01*
X-711200Y354080D02*
X-660400Y404880D01*
X-711200Y354080D02*
X-711200Y149800D01*
X-660400Y404880D02*
X-660400Y433320D01*
X-660400Y141500D02*
X-612700Y141500D01*
X-574700Y179500D01*
X-555580Y179500D01*
X-508000Y227080D01*
X-508000Y255520D01*
X-584200Y264500D02*
X-584200Y333400D01*
X-584200Y243500D02*
X-584200Y201500D01*
X-648590Y150578D02*
X-648590Y146580D01*
X-648590Y150578D02*
X-650822Y152810D01*
X-669978Y152810D01*
X-672210Y150578D01*
X-672210Y137994D01*
X-680720Y146504D01*
X-680720Y162996D01*
X-669296Y174420D01*
X-602510Y174420D01*
X-602510Y170922D01*
X-600278Y168690D01*
X-592694Y168690D01*
X-614804Y146580D01*
X-648590Y146580D01*
X-891819Y551434D02*
X-896366Y551434D01*
X-896366Y558546D01*
X-895432Y558546D01*
X-895432Y558546D01*
X-892579Y558546D01*
X-892626Y558128D01*
X-890260Y555171D01*
X-887929Y554912D01*
X-887929Y551434D01*
X-889766Y551434D01*
X-890793Y550407D01*
X-891819Y551434D01*
X-784290Y507428D02*
X-784290Y502012D01*
X-784290Y507428D02*
X-786522Y509660D01*
X-791994Y509660D01*
X-786034Y515620D01*
X-737184Y515620D01*
X-736725Y515161D01*
X-736725Y500380D01*
X-782658Y500380D01*
X-784290Y502012D01*
X-782826Y486160D02*
X-736725Y486160D01*
X-782826Y486160D02*
X-784290Y487624D01*
X-784290Y490220D01*
X-736725Y490220D01*
X-736725Y486160D01*
X-292100Y584200D02*
X-292100Y63500D01*
X-1028700Y63500D01*
X-1028700Y90248D01*
X-1026810Y91031D01*
X-1024331Y93510D01*
X-1022990Y96748D01*
X-1022990Y100252D01*
X-1024331Y103490D01*
X-1026810Y105969D01*
X-1028700Y106752D01*
X-1028700Y114300D01*
X-1066800Y114300D01*
X-1066800Y584200D01*
X-292100Y584200D01*
X-576622Y253310D02*
X-591778Y253310D01*
X-594010Y251078D01*
X-594010Y235922D01*
X-591778Y233690D01*
X-589280Y233690D01*
X-589280Y212310D01*
X-590778Y212310D01*
X-593010Y210078D01*
X-593010Y193794D01*
X-594796Y195580D01*
X-604520Y195580D01*
X-604520Y205304D01*
X-607496Y208280D01*
X-611704Y208280D01*
X-614680Y205304D01*
X-614680Y188396D01*
X-611704Y185420D01*
X-602510Y185420D01*
X-602510Y184580D01*
X-673504Y184580D01*
X-676480Y181604D01*
X-690880Y167204D01*
X-690880Y142296D01*
X-687904Y139320D01*
X-667394Y118810D01*
X-673026Y118810D01*
X-706120Y151904D01*
X-706120Y351976D01*
X-665026Y393070D01*
X-649807Y393070D01*
X-647575Y395302D01*
X-647575Y414458D01*
X-649807Y416690D01*
X-655320Y416690D01*
X-655320Y421510D01*
X-649807Y421510D01*
X-647575Y423742D01*
X-647575Y442898D01*
X-649807Y445130D01*
X-655320Y445130D01*
X-655320Y459304D01*
X-658296Y462280D01*
X-696396Y500380D01*
X-711075Y500380D01*
X-711075Y504440D01*
X-638624Y504440D01*
X-589280Y455096D01*
X-589280Y445130D01*
X-594793Y445130D01*
X-597025Y442898D01*
X-597025Y423742D01*
X-594793Y421510D01*
X-589280Y421510D01*
X-589280Y416690D01*
X-594793Y416690D01*
X-597025Y414458D01*
X-597025Y395302D01*
X-594793Y393070D01*
X-589280Y393070D01*
X-589280Y362710D01*
X-593278Y362710D01*
X-595510Y360478D01*
X-595510Y344322D01*
X-594088Y342900D01*
X-595510Y341478D01*
X-595510Y325322D01*
X-593278Y323090D01*
X-589280Y323090D01*
X-589280Y274310D01*
X-591778Y274310D01*
X-594010Y272078D01*
X-594010Y256922D01*
X-591778Y254690D01*
X-576622Y254690D01*
X-574390Y256922D01*
X-574390Y272078D01*
X-576622Y274310D01*
X-579120Y274310D01*
X-579120Y323090D01*
X-575122Y323090D01*
X-572890Y325322D01*
X-572890Y341478D01*
X-574312Y342900D01*
X-572890Y344322D01*
X-572890Y360478D01*
X-575122Y362710D01*
X-579120Y362710D01*
X-579120Y393070D01*
X-573607Y393070D01*
X-571375Y395302D01*
X-571375Y414458D01*
X-573607Y416690D01*
X-579120Y416690D01*
X-579120Y421510D01*
X-573607Y421510D01*
X-571375Y423742D01*
X-571375Y442898D01*
X-573607Y445130D01*
X-579120Y445130D01*
X-579120Y459304D01*
X-634416Y514600D01*
X-711075Y514600D01*
X-711075Y519098D01*
X-713307Y521330D01*
X-728526Y521330D01*
X-730000Y522804D01*
X-732976Y525780D01*
X-790242Y525780D01*
X-793218Y522804D01*
X-806362Y509660D01*
X-813678Y509660D01*
X-815910Y507428D01*
X-815910Y506080D01*
X-863490Y506080D01*
X-863490Y518878D01*
X-865722Y521110D01*
X-886878Y521110D01*
X-889110Y518878D01*
X-889110Y514380D01*
X-929394Y514380D01*
X-932370Y511404D01*
X-1026040Y417734D01*
X-1026040Y420445D01*
X-1028395Y422800D01*
X-1031725Y422800D01*
X-1034080Y420445D01*
X-1034080Y417115D01*
X-1033790Y416825D01*
X-1035351Y415263D01*
X-1035351Y382297D01*
X-1033790Y380735D01*
X-1034080Y380445D01*
X-1034080Y377115D01*
X-1031725Y374760D01*
X-1028395Y374760D01*
X-1026040Y377115D01*
X-1026040Y380065D01*
X-1016501Y380065D01*
X-1014269Y382297D01*
X-1014269Y415137D01*
X-925186Y504220D01*
X-889110Y504220D01*
X-889110Y499722D01*
X-886878Y497490D01*
X-871674Y497490D01*
X-870104Y495920D01*
X-843280Y495920D01*
X-843280Y493196D01*
X-840304Y490220D01*
X-830580Y490220D01*
X-830580Y486896D01*
X-827604Y483920D01*
X-815910Y483920D01*
X-815910Y483172D01*
X-813678Y480940D01*
X-811430Y480940D01*
X-811430Y467796D01*
X-808454Y464820D01*
X-805180Y464820D01*
X-805180Y462280D01*
X-814904Y462280D01*
X-817880Y459304D01*
X-817880Y442396D01*
X-814904Y439420D01*
X-810696Y439420D01*
X-807720Y442396D01*
X-807720Y452120D01*
X-797996Y452120D01*
X-795020Y455096D01*
X-795020Y472004D01*
X-797996Y474980D01*
X-801270Y474980D01*
X-801270Y480940D01*
X-791974Y480940D01*
X-790010Y478976D01*
X-787034Y476000D01*
X-736725Y476000D01*
X-736725Y471502D01*
X-734493Y469270D01*
X-713307Y469270D01*
X-711075Y471502D01*
X-711075Y490220D01*
X-700604Y490220D01*
X-665480Y455096D01*
X-665480Y445130D01*
X-670993Y445130D01*
X-673225Y442898D01*
X-673225Y423742D01*
X-670993Y421510D01*
X-665480Y421510D01*
X-665480Y416690D01*
X-670993Y416690D01*
X-673225Y414458D01*
X-673225Y399239D01*
X-713304Y359160D01*
X-716280Y356184D01*
X-716280Y147696D01*
X-713304Y144720D01*
X-680210Y111626D01*
X-680210Y101422D01*
X-677978Y99190D01*
X-662822Y99190D01*
X-660590Y101422D01*
X-660590Y112006D01*
X-660210Y111626D01*
X-660210Y101422D01*
X-657978Y99190D01*
X-642822Y99190D01*
X-640590Y101422D01*
X-640590Y103920D01*
X-627380Y103920D01*
X-627380Y99496D01*
X-624404Y96520D01*
X-582096Y96520D01*
X-579120Y99496D01*
X-579120Y103704D01*
X-582096Y106680D01*
X-617220Y106680D01*
X-617220Y111104D01*
X-620196Y114080D01*
X-640590Y114080D01*
X-640590Y116578D01*
X-642822Y118810D01*
X-653026Y118810D01*
X-664406Y130190D01*
X-650822Y130190D01*
X-648590Y132422D01*
X-648590Y136420D01*
X-610596Y136420D01*
X-578326Y168690D01*
X-568122Y168690D01*
X-565890Y170922D01*
X-565890Y174420D01*
X-553476Y174420D01*
X-512626Y215270D01*
X-497407Y215270D01*
X-495175Y217502D01*
X-495175Y236658D01*
X-497407Y238890D01*
X-502920Y238890D01*
X-502920Y243710D01*
X-497407Y243710D01*
X-495175Y245942D01*
X-495175Y265098D01*
X-497407Y267330D01*
X-518593Y267330D01*
X-520825Y265098D01*
X-520825Y245942D01*
X-518593Y243710D01*
X-513080Y243710D01*
X-513080Y238890D01*
X-518593Y238890D01*
X-520825Y236658D01*
X-520825Y221439D01*
X-557684Y184580D01*
X-565890Y184580D01*
X-565890Y188078D01*
X-568122Y190310D01*
X-581278Y190310D01*
X-583510Y188078D01*
X-583510Y177874D01*
X-584890Y176494D01*
X-584890Y188078D01*
X-587122Y190310D01*
X-591820Y190310D01*
X-591820Y191732D01*
X-590778Y190690D01*
X-577622Y190690D01*
X-575390Y192922D01*
X-575390Y210078D01*
X-577622Y212310D01*
X-579120Y212310D01*
X-579120Y233690D01*
X-576622Y233690D01*
X-574390Y235922D01*
X-574390Y251078D01*
X-576622Y253310D01*
X-756782Y124273D02*
X-760511Y124273D01*
X-763870Y122334D01*
X-763870Y122334D01*
X-763870Y122334D01*
X-765810Y118974D01*
X-765810Y115246D01*
X-765752Y115188D01*
X-764412Y112181D01*
X-764412Y112181D01*
X-763337Y111214D01*
X-765810Y107811D01*
X-765810Y100319D01*
X-763281Y97790D01*
X-748019Y97790D01*
X-745490Y100319D01*
X-745490Y103897D01*
X-746846Y105252D01*
X-746277Y105537D01*
X-745146Y108930D01*
X-746176Y110990D01*
X-745490Y111676D01*
X-745490Y111877D01*
X-745360Y112031D01*
X-745490Y113639D01*
X-745490Y121744D01*
X-748019Y124273D01*
X-751597Y124273D01*
X-753532Y122338D01*
X-754228Y123068D01*
X-754228Y123068D01*
X-754654Y123251D01*
X-754865Y123430D01*
X-755040Y123416D01*
X-756589Y124080D01*
X-756782Y124273D01*
X-532119Y126436D02*
X-529590Y128965D01*
X-529590Y132542D01*
X-531513Y134465D01*
X-529590Y136387D01*
X-529590Y146456D01*
X-532119Y148985D01*
X-535697Y148985D01*
X-538226Y146456D01*
X-538226Y145739D01*
X-545353Y145739D01*
X-546893Y145911D01*
X-547107Y145739D01*
X-547381Y145739D01*
X-548476Y144644D01*
X-549686Y143676D01*
X-549716Y143404D01*
X-549910Y143210D01*
X-549910Y141661D01*
X-550081Y140121D01*
X-549910Y139907D01*
X-549910Y139633D01*
X-548814Y138537D01*
X-548079Y137618D01*
X-549910Y135788D01*
X-549910Y125719D01*
X-547381Y123190D01*
X-543803Y123190D01*
X-541274Y125719D01*
X-541274Y126436D01*
X-532119Y126436D01*
X-667121Y224790D02*
X-674381Y224790D01*
X-667121Y224790D02*
X-667033Y224710D01*
X-665349Y224790D01*
X-659119Y224790D01*
X-656590Y227319D01*
X-656590Y230897D01*
X-657974Y232281D01*
X-657270Y232665D01*
X-656261Y236097D01*
X-657974Y239237D01*
X-660789Y240065D01*
X-657532Y247880D01*
X-658894Y251188D01*
X-661134Y252121D01*
X-661134Y262632D01*
X-663663Y265162D01*
X-667240Y265162D01*
X-669770Y262632D01*
X-669770Y252121D01*
X-672009Y251188D01*
X-673371Y247880D01*
X-669523Y238645D01*
X-671011Y239997D01*
X-674584Y239827D01*
X-676990Y237180D01*
X-676820Y233607D01*
X-675447Y232359D01*
X-676910Y230897D01*
X-676910Y227319D01*
X-674381Y224790D01*
X-412615Y239660D02*
X-412615Y243868D01*
X-414929Y247876D01*
X-414929Y247876D01*
X-414929Y247876D01*
X-418936Y250190D01*
X-423334Y250190D01*
X-427139Y248494D01*
X-427139Y248494D01*
X-429110Y246303D01*
X-429949Y247755D01*
X-429949Y247755D01*
X-434166Y250190D01*
X-443011Y250190D01*
X-444262Y248939D01*
X-445513Y250190D01*
X-458332Y250190D01*
X-461010Y247512D01*
X-461010Y243724D01*
X-458332Y241046D01*
X-456494Y241046D01*
X-456494Y227468D01*
X-453816Y224790D01*
X-450029Y224790D01*
X-447350Y227468D01*
X-447350Y241046D01*
X-445689Y241046D01*
X-445689Y227468D01*
X-443011Y224790D01*
X-439223Y224790D01*
X-436545Y227468D01*
X-436545Y232015D01*
X-434166Y232015D01*
X-429949Y234450D01*
X-429949Y234450D01*
X-429949Y234450D01*
X-428023Y237785D01*
X-425825Y237072D01*
X-425541Y237217D01*
X-429581Y232464D01*
X-430790Y231256D01*
X-430790Y231043D01*
X-430928Y230880D01*
X-430790Y229177D01*
X-430790Y227468D01*
X-430639Y227317D01*
X-430622Y227105D01*
X-429320Y225998D01*
X-428111Y224790D01*
X-427898Y224790D01*
X-427736Y224652D01*
X-426033Y224790D01*
X-415293Y224790D01*
X-412615Y227468D01*
X-412615Y231256D01*
X-415293Y233934D01*
X-416331Y233934D01*
X-415214Y235249D01*
X-414060Y236347D01*
X-414060Y236348D01*
X-413836Y236869D01*
X-413831Y236875D01*
X-413831Y236880D01*
X-412659Y239616D01*
X-412615Y239660D01*
X-542716Y402590D02*
X-545394Y405268D01*
X-542716Y402590D02*
X-538929Y402590D01*
X-536250Y405268D01*
X-536250Y418846D01*
X-534589Y418846D01*
X-534589Y405268D01*
X-531911Y402590D01*
X-528123Y402590D01*
X-525445Y405268D01*
X-525445Y409815D01*
X-523066Y409815D01*
X-518849Y412250D01*
X-518849Y412250D01*
X-518849Y412250D01*
X-517745Y414161D01*
X-515318Y411734D01*
X-517011Y411734D01*
X-519690Y409056D01*
X-519690Y405268D01*
X-517011Y402590D01*
X-508167Y402590D01*
X-503950Y405025D01*
X-503950Y405025D01*
X-503950Y405025D01*
X-501515Y409243D01*
X-501515Y414113D01*
X-502525Y415862D01*
X-501514Y417613D01*
X-501514Y421999D01*
X-503707Y425797D01*
X-503707Y425797D01*
X-503708Y425797D01*
X-507506Y427990D01*
X-517011Y427990D01*
X-519228Y425774D01*
X-523066Y427990D01*
X-531911Y427990D01*
X-533162Y426739D01*
X-534413Y427990D01*
X-547232Y427990D01*
X-549910Y425312D01*
X-549910Y421524D01*
X-547232Y418846D01*
X-545394Y418846D01*
X-545394Y405268D01*
X-720516Y402590D02*
X-723194Y405268D01*
X-720516Y402590D02*
X-716729Y402590D01*
X-714050Y405268D01*
X-714050Y418846D01*
X-712389Y418846D01*
X-712389Y405268D01*
X-709711Y402590D01*
X-705923Y402590D01*
X-703245Y405268D01*
X-703245Y409815D01*
X-700866Y409815D01*
X-696649Y412250D01*
X-696649Y412250D01*
X-696649Y412250D01*
X-694820Y415417D01*
X-692974Y415212D01*
X-692974Y411734D01*
X-694811Y411734D01*
X-697490Y409056D01*
X-697490Y405268D01*
X-694811Y402590D01*
X-681993Y402590D01*
X-679315Y405268D01*
X-679315Y409056D01*
X-681993Y411734D01*
X-683830Y411734D01*
X-683830Y423165D01*
X-683649Y424795D01*
X-683830Y425022D01*
X-683830Y425312D01*
X-684990Y426472D01*
X-686015Y427753D01*
X-686303Y427785D01*
X-686508Y427990D01*
X-688149Y427990D01*
X-689779Y428171D01*
X-690006Y427990D01*
X-690296Y427990D01*
X-691456Y426830D01*
X-695512Y423585D01*
X-696649Y425555D01*
X-696649Y425555D01*
X-696649Y425555D01*
X-700866Y427990D01*
X-709711Y427990D01*
X-710962Y426739D01*
X-712213Y427990D01*
X-725032Y427990D01*
X-727710Y425312D01*
X-727710Y421524D01*
X-725032Y418846D01*
X-723194Y418846D01*
X-723194Y405268D01*
X-712332Y542290D02*
X-715010Y544968D01*
X-712332Y542290D02*
X-708544Y542290D01*
X-705866Y544968D01*
X-705866Y545557D01*
X-704649Y543123D01*
X-701056Y541926D01*
X-697971Y543469D01*
X-696792Y542290D01*
X-683973Y542290D01*
X-681295Y544968D01*
X-681295Y548756D01*
X-683973Y551434D01*
X-685811Y551434D01*
X-685811Y562865D01*
X-685630Y564495D01*
X-685811Y564722D01*
X-685811Y565012D01*
X-686971Y566172D01*
X-687996Y567453D01*
X-688284Y567485D01*
X-688489Y567690D01*
X-690130Y567690D01*
X-691760Y567871D01*
X-691987Y567690D01*
X-692277Y567690D01*
X-693437Y566530D01*
X-697930Y562935D01*
X-699270Y565255D01*
X-699270Y565255D01*
X-703487Y567690D01*
X-712332Y567690D01*
X-715010Y565012D01*
X-715010Y561224D01*
X-715010Y544968D01*
X-890793Y543317D02*
X-891819Y542290D01*
X-890793Y543317D02*
X-889766Y542290D01*
X-876948Y542290D01*
X-874269Y544968D01*
X-874269Y548756D01*
X-876948Y551434D01*
X-878785Y551434D01*
X-878785Y562865D01*
X-878604Y564495D01*
X-878785Y564722D01*
X-878785Y565012D01*
X-879945Y566172D01*
X-880970Y567453D01*
X-881258Y567485D01*
X-881463Y567690D01*
X-883104Y567690D01*
X-884734Y567871D01*
X-884961Y567690D01*
X-885251Y567690D01*
X-886411Y566530D01*
X-889141Y564346D01*
X-889141Y565012D01*
X-891819Y567690D01*
X-899219Y567690D01*
X-899219Y567690D01*
X-899519Y567690D01*
X-903317Y565497D01*
X-903317Y565497D01*
X-903317Y565497D01*
X-905510Y561699D01*
X-905510Y548281D01*
X-903317Y544483D01*
X-903317Y544483D01*
X-899519Y542290D01*
X-895432Y542290D01*
X-891819Y542290D01*
X-775832Y567690D02*
X-772044Y567690D01*
X-775832Y567690D02*
X-778510Y565012D01*
X-778510Y548943D01*
X-776075Y544725D01*
X-776075Y544725D01*
X-776075Y544725D01*
X-771857Y542290D01*
X-766987Y542290D01*
X-762770Y544725D01*
X-762770Y544725D01*
X-762770Y544725D01*
X-762358Y545439D01*
X-762358Y544968D01*
X-759680Y542290D01*
X-746861Y542290D01*
X-744183Y544968D01*
X-744183Y548756D01*
X-746861Y551434D01*
X-748698Y551434D01*
X-748698Y562865D01*
X-748517Y564495D01*
X-748698Y564722D01*
X-748698Y565012D01*
X-749858Y566172D01*
X-750883Y567453D01*
X-751171Y567485D01*
X-751376Y567690D01*
X-753017Y567690D01*
X-754648Y567871D01*
X-754874Y567690D01*
X-755164Y567690D01*
X-756324Y566530D01*
X-760335Y563321D01*
X-760335Y565012D01*
X-763013Y567690D01*
X-766801Y567690D01*
X-769422Y565068D01*
X-772044Y567690D01*
X-674381Y276713D02*
X-676910Y274184D01*
X-676910Y270607D01*
X-674381Y268077D01*
X-659119Y268077D01*
X-656590Y270607D01*
X-656590Y279377D01*
X-657158Y279945D01*
X-656590Y280513D01*
X-656590Y289283D01*
X-657147Y289839D01*
X-656590Y290396D01*
X-656590Y293642D01*
X-656590Y293642D01*
X-656590Y297457D01*
X-658329Y300468D01*
X-656590Y302207D01*
X-656590Y312275D01*
X-659119Y314805D01*
X-662697Y314805D01*
X-665226Y312275D01*
X-665226Y311559D01*
X-672353Y311559D01*
X-673893Y311730D01*
X-674107Y311559D01*
X-674381Y311559D01*
X-675476Y310463D01*
X-676686Y309496D01*
X-676716Y309223D01*
X-676910Y309030D01*
X-676910Y307480D01*
X-677081Y305940D01*
X-676910Y305726D01*
X-676910Y305453D01*
X-675814Y304357D01*
X-673665Y301670D01*
X-674883Y300967D01*
X-674883Y300967D01*
X-674883Y300967D01*
X-676910Y297457D01*
X-676910Y290396D01*
X-676353Y289839D01*
X-676910Y289283D01*
X-676910Y280513D01*
X-674381Y277983D01*
X-665226Y277983D01*
X-665226Y276713D01*
X-674381Y276713D01*
X-519419Y339090D02*
X-516890Y341619D01*
X-516890Y345197D01*
X-518246Y346552D01*
X-517677Y346837D01*
X-516546Y350230D01*
X-517576Y352290D01*
X-516890Y352976D01*
X-516890Y360467D01*
X-519779Y364444D01*
X-519779Y364444D01*
X-519779Y364444D01*
X-524454Y365963D01*
X-524454Y365963D01*
X-527426Y364997D01*
X-530296Y365929D01*
X-530296Y365929D01*
X-534569Y364541D01*
X-534569Y364541D01*
X-537210Y360906D01*
X-537210Y352976D01*
X-535584Y351349D01*
X-537210Y349111D01*
X-537210Y341619D01*
X-534681Y339090D01*
X-524612Y339090D01*
X-519419Y339090D01*
X-394264Y443219D02*
X-391735Y440690D01*
X-388158Y440690D01*
X-385960Y442888D01*
X-383762Y440690D01*
X-380185Y440690D01*
X-377656Y443219D01*
X-377656Y445883D01*
X-376271Y445883D01*
X-375420Y446501D01*
X-375412Y446486D01*
X-375412Y445816D01*
X-374575Y444979D01*
X-374000Y443944D01*
X-373356Y443760D01*
X-372883Y443286D01*
X-371699Y443286D01*
X-370630Y442981D01*
X-368339Y440690D01*
X-364762Y440690D01*
X-362232Y443219D01*
X-362232Y443869D01*
X-360285Y445816D01*
X-360285Y449393D01*
X-362232Y451340D01*
X-362232Y451989D01*
X-364658Y454415D01*
X-363854Y457226D01*
X-365592Y460352D01*
X-369031Y461335D01*
X-372158Y459598D01*
X-372531Y458293D01*
X-376271Y461010D01*
X-383762Y461010D01*
X-384337Y460435D01*
X-384912Y461010D01*
X-394981Y461010D01*
X-397510Y458481D01*
X-397510Y454903D01*
X-394981Y452374D01*
X-394264Y452374D01*
X-394264Y443219D01*
X-797763Y531526D02*
X-799610Y537210D01*
X-797763Y531526D02*
X-792928Y528013D01*
X-786952Y528013D01*
X-782117Y531526D01*
X-780270Y537210D01*
X-782117Y542894D01*
X-786952Y546407D01*
X-792928Y546407D01*
X-797763Y542894D01*
X-799610Y537210D01*
X-865722Y493110D02*
X-886878Y493110D01*
X-889110Y490878D01*
X-889110Y474980D01*
X-891104Y474980D01*
X-894080Y472004D01*
X-894080Y442396D01*
X-891104Y439420D01*
X-886896Y439420D01*
X-883920Y442396D01*
X-883920Y464820D01*
X-874196Y464820D01*
X-871220Y467796D01*
X-871220Y469490D01*
X-865722Y469490D01*
X-863490Y471722D01*
X-863490Y490878D01*
X-865722Y493110D01*
X-1038250Y421858D02*
X-1038250Y399702D01*
X-1038250Y421858D02*
X-1040482Y424090D01*
X-1046480Y424090D01*
X-1046480Y424970D01*
X-1040482Y424970D01*
X-1038250Y427202D01*
X-1038250Y449358D01*
X-1040482Y451590D01*
X-1049020Y451590D01*
X-1049020Y452120D01*
X-1039296Y452120D01*
X-1036320Y455096D01*
X-1036320Y472004D01*
X-1039296Y474980D01*
X-1043504Y474980D01*
X-1046480Y472004D01*
X-1046480Y462280D01*
X-1056204Y462280D01*
X-1059180Y459304D01*
X-1059180Y451590D01*
X-1062638Y451590D01*
X-1064870Y449358D01*
X-1064870Y427202D01*
X-1062638Y424970D01*
X-1056640Y424970D01*
X-1056640Y424090D01*
X-1062638Y424090D01*
X-1064870Y421858D01*
X-1064870Y399702D01*
X-1063948Y398780D01*
X-1064870Y397858D01*
X-1064870Y375702D01*
X-1062638Y373470D01*
X-1056640Y373470D01*
X-1056640Y372590D01*
X-1062638Y372590D01*
X-1064870Y370358D01*
X-1064870Y348202D01*
X-1062638Y345970D01*
X-1046480Y345970D01*
X-1046480Y315396D01*
X-1043504Y312420D01*
X-1039296Y312420D01*
X-1036320Y315396D01*
X-1036320Y361384D01*
X-1038250Y363314D01*
X-1038250Y370358D01*
X-1040482Y372590D01*
X-1046480Y372590D01*
X-1046480Y373470D01*
X-1040482Y373470D01*
X-1038250Y375702D01*
X-1038250Y397858D01*
X-1039172Y398780D01*
X-1038250Y399702D01*
X-354970Y484707D02*
X-354970Y505893D01*
X-357202Y508125D01*
X-376358Y508125D01*
X-378590Y505893D01*
X-378590Y500380D01*
X-383410Y500380D01*
X-383410Y505893D01*
X-385642Y508125D01*
X-404798Y508125D01*
X-407030Y505893D01*
X-407030Y484707D01*
X-404798Y482475D01*
X-385642Y482475D01*
X-383410Y484707D01*
X-383410Y490220D01*
X-378590Y490220D01*
X-378590Y484707D01*
X-376358Y482475D01*
X-357202Y482475D01*
X-354970Y484707D01*
X-292100Y76200D02*
X-1028700Y76200D01*
X-1023548Y101600D02*
X-765810Y101600D01*
X-745490Y101600D02*
X-680210Y101600D01*
X-660590Y101600D02*
X-660210Y101600D01*
X-640590Y101600D02*
X-627380Y101600D01*
X-579120Y101600D02*
X-292100Y101600D01*
X-695584Y127000D02*
X-1066800Y127000D01*
X-681216Y127000D02*
X-675584Y127000D01*
X-661216Y127000D02*
X-549910Y127000D01*
X-531555Y127000D02*
X-292100Y127000D01*
X-716280Y152400D02*
X-1066800Y152400D01*
X-706120Y152400D02*
X-690880Y152400D01*
X-680720Y152400D02*
X-670388Y152400D01*
X-650412Y152400D02*
X-608984Y152400D01*
X-594616Y152400D02*
X-292100Y152400D01*
X-716280Y177800D02*
X-1066800Y177800D01*
X-706120Y177800D02*
X-680284Y177800D01*
X-584890Y177800D02*
X-583584Y177800D01*
X-550096Y177800D02*
X-292100Y177800D01*
X-716280Y203200D02*
X-1066800Y203200D01*
X-706120Y203200D02*
X-614680Y203200D01*
X-604520Y203200D02*
X-593010Y203200D01*
X-575390Y203200D02*
X-539064Y203200D01*
X-524696Y203200D02*
X-292100Y203200D01*
X-716280Y228600D02*
X-1066800Y228600D01*
X-706120Y228600D02*
X-676910Y228600D01*
X-656590Y228600D02*
X-589280Y228600D01*
X-579120Y228600D02*
X-520825Y228600D01*
X-495175Y228600D02*
X-456494Y228600D01*
X-447350Y228600D02*
X-445689Y228600D01*
X-436545Y228600D02*
X-430790Y228600D01*
X-412615Y228600D02*
X-292100Y228600D01*
X-716280Y254000D02*
X-1066800Y254000D01*
X-706120Y254000D02*
X-669770Y254000D01*
X-661134Y254000D02*
X-520825Y254000D01*
X-495175Y254000D02*
X-292100Y254000D01*
X-716280Y279400D02*
X-1066800Y279400D01*
X-706120Y279400D02*
X-675797Y279400D01*
X-656613Y279400D02*
X-589280Y279400D01*
X-579120Y279400D02*
X-292100Y279400D01*
X-716280Y304800D02*
X-1066800Y304800D01*
X-706120Y304800D02*
X-676257Y304800D01*
X-656590Y304800D02*
X-589280Y304800D01*
X-579120Y304800D02*
X-292100Y304800D01*
X-1046480Y330200D02*
X-1066800Y330200D01*
X-1036320Y330200D02*
X-716280Y330200D01*
X-706120Y330200D02*
X-595510Y330200D01*
X-572890Y330200D02*
X-292100Y330200D01*
X-1064870Y355600D02*
X-1066800Y355600D01*
X-1036320Y355600D02*
X-716280Y355600D01*
X-702496Y355600D02*
X-595510Y355600D01*
X-572890Y355600D02*
X-537210Y355600D01*
X-516890Y355600D02*
X-292100Y355600D01*
X-1064870Y381000D02*
X-1066800Y381000D01*
X-1038250Y381000D02*
X-1034054Y381000D01*
X-1015566Y381000D02*
X-691464Y381000D01*
X-677096Y381000D02*
X-589280Y381000D01*
X-579120Y381000D02*
X-292100Y381000D01*
X-1064870Y406400D02*
X-1066800Y406400D01*
X-1038250Y406400D02*
X-1035351Y406400D01*
X-1014269Y406400D02*
X-723194Y406400D01*
X-714050Y406400D02*
X-712389Y406400D01*
X-703245Y406400D02*
X-697490Y406400D01*
X-679315Y406400D02*
X-673225Y406400D01*
X-647575Y406400D02*
X-597025Y406400D01*
X-571375Y406400D02*
X-545394Y406400D01*
X-536250Y406400D02*
X-534589Y406400D01*
X-525445Y406400D02*
X-519690Y406400D01*
X-503156Y406400D02*
X-292100Y406400D01*
X-1064870Y431800D02*
X-1066800Y431800D01*
X-1038250Y431800D02*
X-1011974Y431800D01*
X-997606Y431800D02*
X-673225Y431800D01*
X-647575Y431800D02*
X-597025Y431800D01*
X-571375Y431800D02*
X-292100Y431800D01*
X-1059180Y457200D02*
X-1066800Y457200D01*
X-1036320Y457200D02*
X-986574Y457200D01*
X-972206Y457200D02*
X-894080Y457200D01*
X-883920Y457200D02*
X-817880Y457200D01*
X-795020Y457200D02*
X-667584Y457200D01*
X-655320Y457200D02*
X-591384Y457200D01*
X-579120Y457200D02*
X-397510Y457200D01*
X-363862Y457200D02*
X-292100Y457200D01*
X-961174Y482600D02*
X-1066800Y482600D01*
X-946806Y482600D02*
X-889110Y482600D01*
X-863490Y482600D02*
X-815338Y482600D01*
X-711075Y482600D02*
X-692984Y482600D01*
X-678616Y482600D02*
X-616784Y482600D01*
X-602416Y482600D02*
X-404923Y482600D01*
X-385517Y482600D02*
X-376483Y482600D01*
X-357077Y482600D02*
X-292100Y482600D01*
X-935774Y508000D02*
X-1066800Y508000D01*
X-863490Y508000D02*
X-815338Y508000D01*
X-784862Y508000D02*
X-736725Y508000D01*
X-627816Y508000D02*
X-404923Y508000D01*
X-385517Y508000D02*
X-376483Y508000D01*
X-357077Y508000D02*
X-292100Y508000D01*
X-798372Y533400D02*
X-1066800Y533400D01*
X-781508Y533400D02*
X-292100Y533400D01*
X-905510Y558800D02*
X-1066800Y558800D01*
X-878785Y558800D02*
X-778510Y558800D01*
X-748698Y558800D02*
X-715010Y558800D01*
X-685811Y558800D02*
X-292100Y558800D01*
X-1066800Y584200D02*
X-1066800Y114300D01*
X-1041400Y114300D02*
X-1041400Y312420D01*
X-1041400Y372590D02*
X-1041400Y373470D01*
X-1041400Y424090D02*
X-1041400Y424970D01*
X-1041400Y451590D02*
X-1041400Y452120D01*
X-1041400Y474980D02*
X-1041400Y584200D01*
X-1016000Y380566D02*
X-1016000Y63500D01*
X-1016000Y427774D02*
X-1016000Y584200D01*
X-990600Y438806D02*
X-990600Y63500D01*
X-990600Y453174D02*
X-990600Y584200D01*
X-965200Y464206D02*
X-965200Y63500D01*
X-965200Y478574D02*
X-965200Y584200D01*
X-939800Y489606D02*
X-939800Y63500D01*
X-939800Y503974D02*
X-939800Y584200D01*
X-914400Y504220D02*
X-914400Y63500D01*
X-914400Y514380D02*
X-914400Y584200D01*
X-889000Y439420D02*
X-889000Y63500D01*
X-889000Y490988D02*
X-889000Y499612D01*
X-889000Y518988D02*
X-889000Y542290D01*
X-889000Y551434D02*
X-889000Y555031D01*
X-889000Y564459D02*
X-889000Y584200D01*
X-863600Y471612D02*
X-863600Y63500D01*
X-863600Y490988D02*
X-863600Y495920D01*
X-863600Y518988D02*
X-863600Y584200D01*
X-838200Y490220D02*
X-838200Y63500D01*
X-838200Y506080D02*
X-838200Y584200D01*
X-812800Y439420D02*
X-812800Y63500D01*
X-812800Y462280D02*
X-812800Y480940D01*
X-812800Y509660D02*
X-812800Y584200D01*
X-787400Y476366D02*
X-787400Y63500D01*
X-787400Y509660D02*
X-787400Y514254D01*
X-787400Y525780D02*
X-787400Y528013D01*
X-787400Y546407D02*
X-787400Y584200D01*
X-762000Y97790D02*
X-762000Y63500D01*
X-762000Y123414D02*
X-762000Y476000D01*
X-762000Y486160D02*
X-762000Y490220D01*
X-762000Y500380D02*
X-762000Y515620D01*
X-762000Y525780D02*
X-762000Y544611D01*
X-762000Y566677D02*
X-762000Y584200D01*
X-736600Y471377D02*
X-736600Y63500D01*
X-736600Y525780D02*
X-736600Y584200D01*
X-711200Y142616D02*
X-711200Y63500D01*
X-711200Y361264D02*
X-711200Y404079D01*
X-711200Y426977D02*
X-711200Y471377D01*
X-711200Y519223D02*
X-711200Y542290D01*
X-711200Y567690D02*
X-711200Y584200D01*
X-685800Y117216D02*
X-685800Y63500D01*
X-685800Y131584D02*
X-685800Y137216D01*
X-685800Y172284D02*
X-685800Y372296D01*
X-685800Y386664D02*
X-685800Y402590D01*
X-685800Y427484D02*
X-685800Y475416D01*
X-685800Y489784D02*
X-685800Y504440D01*
X-685800Y514600D02*
X-685800Y542290D01*
X-685800Y551434D02*
X-685800Y562962D01*
X-685800Y564708D02*
X-685800Y584200D01*
X-660400Y111816D02*
X-660400Y63500D01*
X-660400Y126184D02*
X-660400Y130190D01*
X-660400Y152810D02*
X-660400Y174420D01*
X-660400Y184580D02*
X-660400Y224790D01*
X-660400Y239951D02*
X-660400Y240998D01*
X-660400Y251815D02*
X-660400Y268077D01*
X-660400Y314805D02*
X-660400Y393070D01*
X-660400Y464384D02*
X-660400Y504440D01*
X-660400Y514600D02*
X-660400Y584200D01*
X-635000Y103920D02*
X-635000Y63500D01*
X-635000Y114080D02*
X-635000Y136420D01*
X-635000Y146580D02*
X-635000Y174420D01*
X-635000Y184580D02*
X-635000Y500816D01*
X-635000Y514600D02*
X-635000Y584200D01*
X-609600Y96520D02*
X-609600Y63500D01*
X-609600Y106680D02*
X-609600Y137416D01*
X-609600Y151784D02*
X-609600Y174420D01*
X-609600Y184580D02*
X-609600Y185420D01*
X-609600Y208280D02*
X-609600Y475416D01*
X-609600Y489784D02*
X-609600Y584200D01*
X-584200Y96520D02*
X-584200Y63500D01*
X-584200Y106680D02*
X-584200Y162816D01*
X-584200Y177184D02*
X-584200Y190690D01*
X-584200Y253310D02*
X-584200Y254690D01*
X-584200Y464384D02*
X-584200Y584200D01*
X-558800Y174420D02*
X-558800Y63500D01*
X-558800Y184580D02*
X-558800Y584200D01*
X-533400Y126436D02*
X-533400Y63500D01*
X-533400Y148985D02*
X-533400Y194496D01*
X-533400Y208864D02*
X-533400Y339090D01*
X-533400Y364921D02*
X-533400Y404079D01*
X-533400Y426977D02*
X-533400Y584200D01*
X-508000Y215270D02*
X-508000Y63500D01*
X-508000Y267330D02*
X-508000Y402686D01*
X-508000Y427990D02*
X-508000Y584200D01*
X-482600Y584200D02*
X-482600Y63500D01*
X-457200Y63500D02*
X-457200Y241046D01*
X-457200Y250190D02*
X-457200Y584200D01*
X-431800Y233381D02*
X-431800Y63500D01*
X-431800Y248824D02*
X-431800Y584200D01*
X-406400Y484077D02*
X-406400Y63500D01*
X-406400Y506523D02*
X-406400Y584200D01*
X-381000Y440690D02*
X-381000Y63500D01*
X-381000Y461010D02*
X-381000Y490220D01*
X-381000Y500380D02*
X-381000Y584200D01*
X-355600Y484077D02*
X-355600Y63500D01*
X-355600Y506523D02*
X-355600Y584200D01*
X-330200Y584200D02*
X-330200Y63500D01*
X-304800Y63500D02*
X-304800Y584200D01*
M02*
