G04 EAGLE Gerber RS-274X export*
G75*
%MOMM*%
%FSLAX34Y34*%
%LPD*%
%INSilkscreen Top*%
%IPPOS*%
%AMOC8*
5,1,8,0,0,1.08239X$1,22.5*%
G01*
%ADD10C,0.127000*%
%ADD11C,0.200000*%
%ADD12C,0.063400*%
%ADD13C,0.250000*%
%ADD14C,0.240000*%
%ADD15C,0.076200*%

G36*
X-261289Y73635D02*
X-261289Y73635D01*
X-261260Y73633D01*
X-260603Y73720D01*
X-260567Y73733D01*
X-260507Y73745D01*
X-259895Y73999D01*
X-259864Y74021D01*
X-259809Y74049D01*
X-259282Y74452D01*
X-259258Y74482D01*
X-259212Y74522D01*
X-258809Y75049D01*
X-258793Y75083D01*
X-258759Y75135D01*
X-258505Y75747D01*
X-258499Y75785D01*
X-258481Y75838D01*
X-258481Y75839D01*
X-258480Y75843D01*
X-258393Y76500D01*
X-258395Y76522D01*
X-258390Y76550D01*
X-258390Y81611D01*
X-258273Y82794D01*
X-257934Y83914D01*
X-257382Y84946D01*
X-256640Y85850D01*
X-255736Y86592D01*
X-254704Y87144D01*
X-253584Y87483D01*
X-252401Y87600D01*
X-247340Y87600D01*
X-247319Y87605D01*
X-247290Y87603D01*
X-246633Y87690D01*
X-246597Y87703D01*
X-246537Y87715D01*
X-245925Y87969D01*
X-245894Y87991D01*
X-245839Y88019D01*
X-245312Y88422D01*
X-245288Y88452D01*
X-245242Y88492D01*
X-244839Y89019D01*
X-244823Y89053D01*
X-244789Y89105D01*
X-244535Y89717D01*
X-244529Y89755D01*
X-244510Y89813D01*
X-244423Y90470D01*
X-244425Y90492D01*
X-244420Y90520D01*
X-244420Y98140D01*
X-244425Y98161D01*
X-244423Y98190D01*
X-244510Y98847D01*
X-244523Y98883D01*
X-244535Y98943D01*
X-244789Y99556D01*
X-244811Y99586D01*
X-244839Y99641D01*
X-245242Y100168D01*
X-245272Y100192D01*
X-245312Y100238D01*
X-245839Y100641D01*
X-245873Y100657D01*
X-245925Y100691D01*
X-246537Y100945D01*
X-246575Y100951D01*
X-246633Y100970D01*
X-247290Y101057D01*
X-247312Y101055D01*
X-247340Y101060D01*
X-254960Y101060D01*
X-254981Y101055D01*
X-255010Y101057D01*
X-255667Y100970D01*
X-255703Y100957D01*
X-255763Y100945D01*
X-256376Y100691D01*
X-256406Y100669D01*
X-256461Y100641D01*
X-256988Y100238D01*
X-257012Y100208D01*
X-257058Y100168D01*
X-257461Y99641D01*
X-257477Y99607D01*
X-257511Y99556D01*
X-257765Y98943D01*
X-257771Y98906D01*
X-257790Y98847D01*
X-257877Y98190D01*
X-257875Y98168D01*
X-257880Y98140D01*
X-257880Y93079D01*
X-257997Y91896D01*
X-258336Y90776D01*
X-258888Y89744D01*
X-259630Y88840D01*
X-260534Y88098D01*
X-261566Y87546D01*
X-262686Y87207D01*
X-263869Y87090D01*
X-268930Y87090D01*
X-268951Y87085D01*
X-268980Y87087D01*
X-269637Y87000D01*
X-269673Y86987D01*
X-269733Y86975D01*
X-270346Y86721D01*
X-270376Y86699D01*
X-270431Y86671D01*
X-270958Y86268D01*
X-270982Y86238D01*
X-271028Y86198D01*
X-271431Y85671D01*
X-271447Y85637D01*
X-271481Y85586D01*
X-271735Y84973D01*
X-271741Y84936D01*
X-271760Y84877D01*
X-271847Y84220D01*
X-271845Y84198D01*
X-271850Y84170D01*
X-271850Y76550D01*
X-271845Y76529D01*
X-271847Y76500D01*
X-271760Y75843D01*
X-271753Y75823D01*
X-271753Y75811D01*
X-271745Y75796D01*
X-271735Y75747D01*
X-271481Y75135D01*
X-271459Y75104D01*
X-271431Y75049D01*
X-271028Y74522D01*
X-271023Y74519D01*
X-271023Y74518D01*
X-271016Y74513D01*
X-270998Y74498D01*
X-270958Y74452D01*
X-270431Y74049D01*
X-270397Y74033D01*
X-270346Y73999D01*
X-269733Y73745D01*
X-269696Y73739D01*
X-269637Y73720D01*
X-268980Y73633D01*
X-268958Y73635D01*
X-268930Y73630D01*
X-261310Y73630D01*
X-261289Y73635D01*
G37*
G36*
X-275259Y87605D02*
X-275259Y87605D01*
X-275230Y87603D01*
X-274573Y87690D01*
X-274537Y87703D01*
X-274477Y87715D01*
X-273865Y87969D01*
X-273834Y87991D01*
X-273779Y88019D01*
X-273252Y88422D01*
X-273228Y88452D01*
X-273182Y88492D01*
X-272779Y89019D01*
X-272763Y89053D01*
X-272729Y89105D01*
X-272475Y89717D01*
X-272469Y89755D01*
X-272451Y89807D01*
X-272451Y89809D01*
X-272450Y89813D01*
X-272363Y90470D01*
X-272365Y90492D01*
X-272360Y90520D01*
X-272360Y98140D01*
X-272365Y98161D01*
X-272363Y98190D01*
X-272450Y98847D01*
X-272463Y98883D01*
X-272475Y98943D01*
X-272729Y99556D01*
X-272751Y99586D01*
X-272779Y99641D01*
X-273182Y100168D01*
X-273212Y100192D01*
X-273252Y100238D01*
X-273779Y100641D01*
X-273813Y100657D01*
X-273865Y100691D01*
X-274477Y100945D01*
X-274515Y100951D01*
X-274573Y100970D01*
X-275230Y101057D01*
X-275252Y101055D01*
X-275280Y101060D01*
X-282900Y101060D01*
X-282921Y101055D01*
X-282950Y101057D01*
X-283607Y100970D01*
X-283643Y100957D01*
X-283703Y100945D01*
X-284316Y100691D01*
X-284346Y100669D01*
X-284401Y100641D01*
X-284928Y100238D01*
X-284952Y100208D01*
X-284998Y100168D01*
X-285401Y99641D01*
X-285417Y99607D01*
X-285451Y99556D01*
X-285705Y98943D01*
X-285711Y98906D01*
X-285730Y98847D01*
X-285817Y98190D01*
X-285815Y98168D01*
X-285820Y98140D01*
X-285820Y90520D01*
X-285815Y90499D01*
X-285817Y90470D01*
X-285730Y89813D01*
X-285723Y89793D01*
X-285723Y89781D01*
X-285715Y89766D01*
X-285705Y89717D01*
X-285451Y89105D01*
X-285429Y89074D01*
X-285401Y89019D01*
X-284998Y88492D01*
X-284993Y88489D01*
X-284993Y88488D01*
X-284986Y88483D01*
X-284968Y88468D01*
X-284928Y88422D01*
X-284401Y88019D01*
X-284367Y88003D01*
X-284316Y87969D01*
X-283703Y87715D01*
X-283666Y87709D01*
X-283607Y87690D01*
X-282950Y87603D01*
X-282928Y87605D01*
X-282900Y87600D01*
X-275280Y87600D01*
X-275259Y87605D01*
G37*
D10*
X-1064260Y439280D02*
X-1066060Y439280D01*
X-1066060Y358280D01*
X-1064260Y358280D01*
X-1038860Y439280D02*
X-1023060Y439280D01*
X-1023060Y416980D01*
X-1023060Y380580D02*
X-1023060Y358280D01*
X-1038860Y358280D01*
D11*
X-1019560Y419780D02*
X-1019558Y419843D01*
X-1019552Y419905D01*
X-1019542Y419967D01*
X-1019529Y420029D01*
X-1019511Y420089D01*
X-1019490Y420148D01*
X-1019465Y420206D01*
X-1019436Y420262D01*
X-1019404Y420316D01*
X-1019369Y420368D01*
X-1019331Y420417D01*
X-1019289Y420465D01*
X-1019245Y420509D01*
X-1019197Y420551D01*
X-1019148Y420589D01*
X-1019096Y420624D01*
X-1019042Y420656D01*
X-1018986Y420685D01*
X-1018928Y420710D01*
X-1018869Y420731D01*
X-1018809Y420749D01*
X-1018747Y420762D01*
X-1018685Y420772D01*
X-1018623Y420778D01*
X-1018560Y420780D01*
X-1018497Y420778D01*
X-1018435Y420772D01*
X-1018373Y420762D01*
X-1018311Y420749D01*
X-1018251Y420731D01*
X-1018192Y420710D01*
X-1018134Y420685D01*
X-1018078Y420656D01*
X-1018024Y420624D01*
X-1017972Y420589D01*
X-1017923Y420551D01*
X-1017875Y420509D01*
X-1017831Y420465D01*
X-1017789Y420417D01*
X-1017751Y420368D01*
X-1017716Y420316D01*
X-1017684Y420262D01*
X-1017655Y420206D01*
X-1017630Y420148D01*
X-1017609Y420089D01*
X-1017591Y420029D01*
X-1017578Y419967D01*
X-1017568Y419905D01*
X-1017562Y419843D01*
X-1017560Y419780D01*
X-1017562Y419717D01*
X-1017568Y419655D01*
X-1017578Y419593D01*
X-1017591Y419531D01*
X-1017609Y419471D01*
X-1017630Y419412D01*
X-1017655Y419354D01*
X-1017684Y419298D01*
X-1017716Y419244D01*
X-1017751Y419192D01*
X-1017789Y419143D01*
X-1017831Y419095D01*
X-1017875Y419051D01*
X-1017923Y419009D01*
X-1017972Y418971D01*
X-1018024Y418936D01*
X-1018078Y418904D01*
X-1018134Y418875D01*
X-1018192Y418850D01*
X-1018251Y418829D01*
X-1018311Y418811D01*
X-1018373Y418798D01*
X-1018435Y418788D01*
X-1018497Y418782D01*
X-1018560Y418780D01*
X-1018623Y418782D01*
X-1018685Y418788D01*
X-1018747Y418798D01*
X-1018809Y418811D01*
X-1018869Y418829D01*
X-1018928Y418850D01*
X-1018986Y418875D01*
X-1019042Y418904D01*
X-1019096Y418936D01*
X-1019148Y418971D01*
X-1019197Y419009D01*
X-1019245Y419051D01*
X-1019289Y419095D01*
X-1019331Y419143D01*
X-1019369Y419192D01*
X-1019404Y419244D01*
X-1019436Y419298D01*
X-1019465Y419354D01*
X-1019490Y419412D01*
X-1019511Y419471D01*
X-1019529Y419531D01*
X-1019542Y419593D01*
X-1019552Y419655D01*
X-1019558Y419717D01*
X-1019560Y419780D01*
D12*
X-585700Y254000D02*
X-583950Y252250D01*
X-585700Y254000D02*
X-584200Y255500D01*
X-582450Y253750D01*
X-583950Y252250D01*
D13*
X-588200Y251250D03*
D10*
X-678400Y145000D02*
X-678400Y118500D01*
X-678400Y145000D02*
X-672400Y145000D01*
X-642400Y145000D02*
X-642400Y118500D01*
X-642400Y145000D02*
X-648400Y145000D01*
D14*
X-677180Y97543D02*
X-677178Y97612D01*
X-677172Y97681D01*
X-677162Y97749D01*
X-677148Y97817D01*
X-677131Y97884D01*
X-677109Y97950D01*
X-677084Y98014D01*
X-677055Y98077D01*
X-677022Y98138D01*
X-676986Y98197D01*
X-676947Y98254D01*
X-676904Y98308D01*
X-676859Y98360D01*
X-676810Y98410D01*
X-676759Y98456D01*
X-676705Y98499D01*
X-676648Y98540D01*
X-676590Y98576D01*
X-676529Y98610D01*
X-676467Y98640D01*
X-676403Y98666D01*
X-676338Y98688D01*
X-676271Y98707D01*
X-676203Y98722D01*
X-676135Y98733D01*
X-676066Y98740D01*
X-675997Y98743D01*
X-675928Y98742D01*
X-675859Y98737D01*
X-675791Y98728D01*
X-675723Y98715D01*
X-675656Y98698D01*
X-675589Y98678D01*
X-675525Y98653D01*
X-675462Y98625D01*
X-675400Y98594D01*
X-675341Y98558D01*
X-675283Y98520D01*
X-675228Y98478D01*
X-675175Y98433D01*
X-675125Y98385D01*
X-675078Y98335D01*
X-675034Y98281D01*
X-674993Y98226D01*
X-674955Y98168D01*
X-674921Y98108D01*
X-674890Y98046D01*
X-674863Y97982D01*
X-674840Y97917D01*
X-674820Y97851D01*
X-674804Y97783D01*
X-674792Y97715D01*
X-674784Y97647D01*
X-674780Y97578D01*
X-674780Y97508D01*
X-674784Y97439D01*
X-674792Y97371D01*
X-674804Y97303D01*
X-674820Y97235D01*
X-674840Y97169D01*
X-674863Y97104D01*
X-674890Y97040D01*
X-674921Y96978D01*
X-674955Y96918D01*
X-674993Y96860D01*
X-675034Y96805D01*
X-675078Y96751D01*
X-675125Y96701D01*
X-675175Y96653D01*
X-675228Y96608D01*
X-675283Y96566D01*
X-675341Y96528D01*
X-675400Y96492D01*
X-675462Y96461D01*
X-675525Y96433D01*
X-675589Y96408D01*
X-675656Y96388D01*
X-675723Y96371D01*
X-675791Y96358D01*
X-675859Y96349D01*
X-675928Y96344D01*
X-675997Y96343D01*
X-676066Y96346D01*
X-676135Y96353D01*
X-676203Y96364D01*
X-676271Y96379D01*
X-676338Y96398D01*
X-676403Y96420D01*
X-676467Y96446D01*
X-676529Y96476D01*
X-676590Y96510D01*
X-676648Y96546D01*
X-676705Y96587D01*
X-676759Y96630D01*
X-676810Y96676D01*
X-676859Y96726D01*
X-676904Y96778D01*
X-676947Y96832D01*
X-676986Y96889D01*
X-677022Y96948D01*
X-677055Y97009D01*
X-677084Y97072D01*
X-677109Y97136D01*
X-677131Y97202D01*
X-677148Y97269D01*
X-677162Y97337D01*
X-677172Y97405D01*
X-677178Y97474D01*
X-677180Y97543D01*
D15*
X-304419Y77437D02*
X-303234Y73881D01*
X-302048Y77437D01*
X-298148Y79215D02*
X-298076Y79213D01*
X-298004Y79207D01*
X-297932Y79197D01*
X-297861Y79184D01*
X-297791Y79166D01*
X-297722Y79145D01*
X-297654Y79120D01*
X-297588Y79092D01*
X-297523Y79060D01*
X-297460Y79024D01*
X-297399Y78985D01*
X-297341Y78943D01*
X-297284Y78898D01*
X-297231Y78849D01*
X-297180Y78798D01*
X-297131Y78745D01*
X-297086Y78688D01*
X-297044Y78630D01*
X-297005Y78569D01*
X-296969Y78506D01*
X-296937Y78441D01*
X-296909Y78375D01*
X-296884Y78307D01*
X-296863Y78238D01*
X-296845Y78168D01*
X-296832Y78097D01*
X-296822Y78025D01*
X-296816Y77953D01*
X-296814Y77881D01*
X-298148Y79215D02*
X-298228Y79213D01*
X-298307Y79208D01*
X-298387Y79198D01*
X-298465Y79185D01*
X-298543Y79169D01*
X-298621Y79149D01*
X-298697Y79125D01*
X-298772Y79097D01*
X-298845Y79067D01*
X-298917Y79033D01*
X-298988Y78995D01*
X-299056Y78954D01*
X-299123Y78910D01*
X-299188Y78864D01*
X-299250Y78814D01*
X-299310Y78761D01*
X-299367Y78705D01*
X-299422Y78647D01*
X-299474Y78587D01*
X-299523Y78524D01*
X-299569Y78459D01*
X-299612Y78392D01*
X-299652Y78322D01*
X-299688Y78252D01*
X-299722Y78179D01*
X-299751Y78105D01*
X-299778Y78030D01*
X-297259Y76844D02*
X-297208Y76895D01*
X-297160Y76949D01*
X-297114Y77005D01*
X-297071Y77064D01*
X-297031Y77124D01*
X-296995Y77187D01*
X-296961Y77251D01*
X-296931Y77317D01*
X-296904Y77384D01*
X-296881Y77453D01*
X-296861Y77522D01*
X-296844Y77593D01*
X-296831Y77664D01*
X-296822Y77736D01*
X-296817Y77809D01*
X-296815Y77881D01*
X-297259Y76844D02*
X-299778Y73881D01*
X-296814Y73881D01*
X-294604Y73881D02*
X-294604Y74177D01*
X-294307Y74177D01*
X-294307Y73881D01*
X-294604Y73881D01*
X-292097Y76548D02*
X-292095Y76673D01*
X-292090Y76797D01*
X-292081Y76921D01*
X-292069Y77045D01*
X-292053Y77169D01*
X-292034Y77292D01*
X-292011Y77415D01*
X-291984Y77537D01*
X-291955Y77658D01*
X-291922Y77778D01*
X-291885Y77897D01*
X-291845Y78015D01*
X-291802Y78132D01*
X-291755Y78247D01*
X-291705Y78362D01*
X-291652Y78474D01*
X-291629Y78535D01*
X-291603Y78594D01*
X-291573Y78652D01*
X-291540Y78707D01*
X-291503Y78761D01*
X-291464Y78812D01*
X-291422Y78861D01*
X-291376Y78907D01*
X-291328Y78951D01*
X-291278Y78992D01*
X-291225Y79029D01*
X-291171Y79064D01*
X-291114Y79095D01*
X-291055Y79123D01*
X-290995Y79147D01*
X-290934Y79168D01*
X-290872Y79185D01*
X-290808Y79198D01*
X-290744Y79207D01*
X-290680Y79213D01*
X-290615Y79215D01*
X-290550Y79213D01*
X-290486Y79207D01*
X-290422Y79198D01*
X-290358Y79185D01*
X-290296Y79168D01*
X-290235Y79147D01*
X-290175Y79123D01*
X-290116Y79095D01*
X-290059Y79064D01*
X-290005Y79029D01*
X-289952Y78992D01*
X-289902Y78951D01*
X-289854Y78907D01*
X-289808Y78861D01*
X-289766Y78812D01*
X-289727Y78761D01*
X-289690Y78707D01*
X-289657Y78652D01*
X-289627Y78594D01*
X-289601Y78535D01*
X-289578Y78474D01*
X-289525Y78362D01*
X-289475Y78247D01*
X-289428Y78132D01*
X-289385Y78015D01*
X-289345Y77897D01*
X-289308Y77778D01*
X-289275Y77658D01*
X-289246Y77537D01*
X-289219Y77415D01*
X-289196Y77292D01*
X-289177Y77169D01*
X-289161Y77045D01*
X-289149Y76921D01*
X-289140Y76797D01*
X-289135Y76673D01*
X-289133Y76548D01*
X-292097Y76548D02*
X-292095Y76423D01*
X-292090Y76299D01*
X-292081Y76175D01*
X-292069Y76051D01*
X-292053Y75927D01*
X-292034Y75804D01*
X-292011Y75681D01*
X-291984Y75560D01*
X-291955Y75439D01*
X-291922Y75318D01*
X-291885Y75199D01*
X-291845Y75081D01*
X-291802Y74964D01*
X-291755Y74849D01*
X-291705Y74734D01*
X-291652Y74622D01*
X-291629Y74561D01*
X-291603Y74502D01*
X-291573Y74444D01*
X-291540Y74389D01*
X-291503Y74335D01*
X-291464Y74284D01*
X-291422Y74235D01*
X-291376Y74189D01*
X-291328Y74145D01*
X-291278Y74104D01*
X-291225Y74067D01*
X-291171Y74032D01*
X-291114Y74001D01*
X-291055Y73973D01*
X-290995Y73949D01*
X-290934Y73928D01*
X-290872Y73911D01*
X-290808Y73898D01*
X-290744Y73889D01*
X-290680Y73883D01*
X-290615Y73881D01*
X-289578Y74622D02*
X-289525Y74734D01*
X-289475Y74849D01*
X-289428Y74964D01*
X-289385Y75081D01*
X-289345Y75199D01*
X-289308Y75318D01*
X-289275Y75439D01*
X-289246Y75560D01*
X-289219Y75681D01*
X-289196Y75804D01*
X-289177Y75927D01*
X-289161Y76051D01*
X-289149Y76175D01*
X-289140Y76299D01*
X-289135Y76423D01*
X-289133Y76548D01*
X-289578Y74622D02*
X-289601Y74561D01*
X-289627Y74502D01*
X-289657Y74444D01*
X-289690Y74389D01*
X-289727Y74335D01*
X-289766Y74284D01*
X-289808Y74235D01*
X-289854Y74189D01*
X-289902Y74145D01*
X-289952Y74104D01*
X-290005Y74067D01*
X-290059Y74032D01*
X-290116Y74001D01*
X-290175Y73973D01*
X-290235Y73949D01*
X-290296Y73928D01*
X-290358Y73911D01*
X-290422Y73898D01*
X-290486Y73889D01*
X-290550Y73883D01*
X-290615Y73881D01*
X-291800Y75066D02*
X-289430Y78030D01*
X-1046419Y618833D02*
X-1046419Y624167D01*
X-1044048Y624167D01*
X-1044048Y621796D02*
X-1046419Y621796D01*
X-1041633Y624167D02*
X-1041633Y618833D01*
X-1041633Y624167D02*
X-1040151Y624167D01*
X-1040075Y624165D01*
X-1039999Y624159D01*
X-1039923Y624149D01*
X-1039848Y624136D01*
X-1039774Y624118D01*
X-1039700Y624097D01*
X-1039628Y624072D01*
X-1039558Y624043D01*
X-1039488Y624011D01*
X-1039421Y623975D01*
X-1039356Y623935D01*
X-1039292Y623893D01*
X-1039231Y623847D01*
X-1039173Y623798D01*
X-1039117Y623746D01*
X-1039063Y623692D01*
X-1039013Y623634D01*
X-1038966Y623575D01*
X-1038921Y623512D01*
X-1038880Y623448D01*
X-1038843Y623382D01*
X-1038809Y623313D01*
X-1038778Y623243D01*
X-1038751Y623172D01*
X-1038728Y623099D01*
X-1038709Y623025D01*
X-1038693Y622951D01*
X-1038681Y622875D01*
X-1038673Y622799D01*
X-1038669Y622723D01*
X-1038669Y622647D01*
X-1038673Y622571D01*
X-1038681Y622495D01*
X-1038693Y622419D01*
X-1038709Y622345D01*
X-1038728Y622271D01*
X-1038751Y622198D01*
X-1038778Y622127D01*
X-1038809Y622057D01*
X-1038843Y621988D01*
X-1038880Y621922D01*
X-1038921Y621858D01*
X-1038966Y621795D01*
X-1039013Y621736D01*
X-1039063Y621678D01*
X-1039117Y621624D01*
X-1039173Y621572D01*
X-1039231Y621523D01*
X-1039292Y621477D01*
X-1039356Y621435D01*
X-1039421Y621395D01*
X-1039488Y621359D01*
X-1039558Y621327D01*
X-1039628Y621298D01*
X-1039700Y621273D01*
X-1039774Y621252D01*
X-1039848Y621234D01*
X-1039923Y621221D01*
X-1039999Y621211D01*
X-1040075Y621205D01*
X-1040151Y621203D01*
X-1040151Y621204D02*
X-1041633Y621204D01*
X-1039855Y621204D02*
X-1038669Y618833D01*
X-1036192Y620018D02*
X-1035006Y624167D01*
X-1036192Y620018D02*
X-1033228Y620018D01*
X-1034117Y618833D02*
X-1034117Y621204D01*
D11*
X-793402Y514435D02*
X-793400Y514498D01*
X-793394Y514560D01*
X-793384Y514622D01*
X-793371Y514684D01*
X-793353Y514744D01*
X-793332Y514803D01*
X-793307Y514861D01*
X-793278Y514917D01*
X-793246Y514971D01*
X-793211Y515023D01*
X-793173Y515072D01*
X-793131Y515120D01*
X-793087Y515164D01*
X-793039Y515206D01*
X-792990Y515244D01*
X-792938Y515279D01*
X-792884Y515311D01*
X-792828Y515340D01*
X-792770Y515365D01*
X-792711Y515386D01*
X-792651Y515404D01*
X-792589Y515417D01*
X-792527Y515427D01*
X-792465Y515433D01*
X-792402Y515435D01*
X-792339Y515433D01*
X-792277Y515427D01*
X-792215Y515417D01*
X-792153Y515404D01*
X-792093Y515386D01*
X-792034Y515365D01*
X-791976Y515340D01*
X-791920Y515311D01*
X-791866Y515279D01*
X-791814Y515244D01*
X-791765Y515206D01*
X-791717Y515164D01*
X-791673Y515120D01*
X-791631Y515072D01*
X-791593Y515023D01*
X-791558Y514971D01*
X-791526Y514917D01*
X-791497Y514861D01*
X-791472Y514803D01*
X-791451Y514744D01*
X-791433Y514684D01*
X-791420Y514622D01*
X-791410Y514560D01*
X-791404Y514498D01*
X-791402Y514435D01*
X-791404Y514372D01*
X-791410Y514310D01*
X-791420Y514248D01*
X-791433Y514186D01*
X-791451Y514126D01*
X-791472Y514067D01*
X-791497Y514009D01*
X-791526Y513953D01*
X-791558Y513899D01*
X-791593Y513847D01*
X-791631Y513798D01*
X-791673Y513750D01*
X-791717Y513706D01*
X-791765Y513664D01*
X-791814Y513626D01*
X-791866Y513591D01*
X-791920Y513559D01*
X-791976Y513530D01*
X-792034Y513505D01*
X-792093Y513484D01*
X-792153Y513466D01*
X-792215Y513453D01*
X-792277Y513443D01*
X-792339Y513437D01*
X-792402Y513435D01*
X-792465Y513437D01*
X-792527Y513443D01*
X-792589Y513453D01*
X-792651Y513466D01*
X-792711Y513484D01*
X-792770Y513505D01*
X-792828Y513530D01*
X-792884Y513559D01*
X-792938Y513591D01*
X-792990Y513626D01*
X-793039Y513664D01*
X-793087Y513706D01*
X-793131Y513750D01*
X-793173Y513798D01*
X-793211Y513847D01*
X-793246Y513899D01*
X-793278Y513953D01*
X-793307Y514009D01*
X-793332Y514067D01*
X-793353Y514126D01*
X-793371Y514186D01*
X-793384Y514248D01*
X-793394Y514310D01*
X-793400Y514372D01*
X-793402Y514435D01*
D10*
X-790100Y509000D02*
X-810100Y509000D01*
X-810100Y481600D02*
X-790100Y481600D01*
M02*
